<svg width="667" height="667" viewBox="0 0 667 667" fill="none" xmlns="http://www.w3.org/2000/svg">
<mask id="mask0_1_45" style="mask-type:luminance" maskUnits="userSpaceOnUse" x="0" y="0" width="667" height="667">
<path d="M0 -9.53674e-07H666.667V666.667H0V-9.53674e-07Z" fill="white"/>
</mask>
<g mask="url(#mask0_1_45)">
<path d="M538.547 469.032L562.84 483.058L538.547 522.075L514.254 483.058L538.547 469.032ZM584.224 545.73C583.682 545.028 583.123 544.34 582.551 543.667C582.339 543.419 582.13 543.17 581.915 542.926C581.164 542.074 580.399 541.238 579.603 540.435C579.598 540.428 579.592 540.423 579.587 540.418C578.787 539.61 577.956 538.836 577.112 538.079C576.867 537.86 576.619 537.646 576.37 537.431C575.719 536.867 575.055 536.318 574.38 535.783C574.14 535.594 573.903 535.399 573.66 535.212C572.771 534.531 571.866 533.872 570.94 533.244C570.779 533.135 570.612 533.035 570.451 532.927C569.666 532.407 568.87 531.906 568.06 531.424C567.764 531.247 567.466 531.075 567.166 530.903C566.398 530.464 565.619 530.043 564.832 529.64C564.6 529.522 564.374 529.395 564.14 529.28C563.143 528.784 562.13 528.319 561.103 527.883C560.846 527.772 560.584 527.674 560.326 527.568C559.519 527.238 558.706 526.926 557.884 526.632C557.56 526.516 557.236 526.402 556.91 526.292C555.974 525.976 555.031 525.682 554.078 525.415C553.934 525.374 553.794 525.327 553.65 525.288C552.723 525.035 551.788 524.803 550.847 524.596C551.788 524.39 552.723 524.158 553.65 523.904C553.794 523.866 553.934 523.818 554.078 523.778C555.031 523.51 555.974 523.216 556.91 522.9C557.236 522.791 557.56 522.675 557.884 522.56C558.706 522.267 559.519 521.954 560.326 521.624C560.584 521.519 560.846 521.419 561.103 521.31C562.13 520.872 563.143 520.407 564.14 519.912C564.374 519.796 564.6 519.671 564.832 519.552C565.619 519.148 566.398 518.728 567.166 518.29C567.466 518.118 567.764 517.944 568.06 517.768C568.87 517.286 569.666 516.786 570.451 516.264C570.612 516.158 570.779 516.056 570.94 515.948C571.866 515.32 572.771 514.66 573.66 513.98C573.903 513.794 574.14 513.599 574.38 513.408C575.055 512.875 575.719 512.326 576.37 511.762C576.619 511.546 576.867 511.332 577.112 511.112C577.956 510.356 578.787 509.583 579.587 508.775C579.592 508.77 579.598 508.763 579.603 508.758C580.399 507.955 581.164 507.119 581.915 506.267C582.13 506.023 582.339 505.774 582.551 505.526C583.123 504.852 583.682 504.164 584.224 503.463C584.406 503.23 584.591 503 584.768 502.763C585.422 501.892 586.059 501.007 586.666 500.096V549.096C586.059 548.184 585.422 547.3 584.768 546.43C584.591 546.192 584.406 545.963 584.224 545.73ZM539.88 525.975C540.656 525.994 541.432 526.002 542.203 526.054C542.611 526.08 543.014 526.138 543.42 526.174C544.222 526.246 545.023 526.311 545.816 526.416C546.299 526.482 546.775 526.578 547.255 526.655C547.964 526.77 548.675 526.874 549.376 527.015C549.884 527.118 550.384 527.251 550.89 527.368C551.551 527.522 552.218 527.664 552.872 527.842C553.39 527.982 553.896 528.152 554.408 528.307C555.039 528.498 555.674 528.678 556.295 528.891C556.814 529.068 557.319 529.274 557.831 529.466C558.434 529.692 559.04 529.91 559.634 530.156C560.146 530.37 560.646 530.608 561.15 530.838C561.728 531.099 562.311 531.352 562.88 531.634C563.382 531.88 563.87 532.154 564.363 532.415C564.918 532.711 565.476 532.999 566.02 533.314C566.51 533.596 566.986 533.902 567.467 534.199C567.996 534.526 568.53 534.847 569.047 535.192C569.52 535.508 569.98 535.844 570.444 536.174C570.95 536.534 571.458 536.888 571.951 537.266C572.407 537.612 572.847 537.98 573.292 538.342C573.771 538.731 574.252 539.118 574.719 539.523C575.155 539.903 575.575 540.3 575.999 540.694C576.451 541.112 576.904 541.528 577.343 541.963C577.756 542.372 578.154 542.799 578.555 543.223C578.978 543.67 579.403 544.115 579.811 544.576C580.202 545.016 580.575 545.471 580.951 545.924C581.344 546.398 581.738 546.871 582.115 547.359C582.479 547.828 582.828 548.312 583.178 548.795C583.538 549.292 583.898 549.791 584.243 550.302C584.58 550.802 584.902 551.315 585.224 551.827C585.436 552.164 585.643 552.506 585.848 552.85L539.88 579.39V525.975ZM491.867 551.832C492.191 551.316 492.514 550.8 492.854 550.298C493.195 549.791 493.551 549.299 493.908 548.806C494.262 548.318 494.615 547.828 494.983 547.352C495.356 546.871 495.744 546.406 496.131 545.939C496.512 545.479 496.892 545.016 497.287 544.571C497.69 544.116 498.107 543.678 498.524 543.238C498.931 542.807 499.336 542.374 499.756 541.956C500.188 541.53 500.634 541.12 501.078 540.71C501.508 540.308 501.938 539.904 502.38 539.518C502.839 539.119 503.312 538.74 503.783 538.356C504.236 537.988 504.684 537.615 505.148 537.262C505.634 536.891 506.134 536.542 506.63 536.188C507.102 535.852 507.57 535.51 508.051 535.19C508.562 534.85 509.087 534.532 509.608 534.21C510.096 533.908 510.579 533.598 511.076 533.311C511.614 533.002 512.164 532.718 512.712 532.426C513.212 532.159 513.708 531.883 514.218 531.631C514.78 531.354 515.356 531.103 515.928 530.844C516.439 530.614 516.944 530.371 517.462 530.156C518.051 529.911 518.654 529.695 519.251 529.47C519.767 529.276 520.278 529.07 520.8 528.891C521.419 528.679 522.05 528.499 522.676 528.31C523.192 528.154 523.702 527.983 524.222 527.842C524.875 527.666 525.538 527.523 526.198 527.37C526.704 527.252 527.207 527.119 527.719 527.015C528.419 526.874 529.128 526.77 529.835 526.656C530.316 526.579 530.794 526.482 531.278 526.416C532.071 526.311 532.872 526.246 533.674 526.174C534.08 526.138 534.483 526.08 534.891 526.054C535.662 526.002 536.438 525.994 537.214 525.975V579.39L491.246 552.85C491.45 552.508 491.656 552.168 491.867 551.832ZM490.428 549.096V500.096C491.034 501.006 491.67 501.888 492.322 502.758C492.503 503 492.692 503.235 492.878 503.474C493.416 504.168 493.968 504.848 494.535 505.515C494.751 505.77 494.966 506.024 495.186 506.274C495.923 507.112 496.676 507.934 497.459 508.724C497.476 508.743 497.494 508.762 497.511 508.78C498.308 509.584 499.135 510.354 499.975 511.108C500.224 511.331 500.479 511.55 500.732 511.768C501.378 512.328 502.035 512.872 502.704 513.402C502.948 513.595 503.19 513.794 503.438 513.983C504.324 514.662 505.227 515.319 506.15 515.946C506.315 516.058 506.486 516.16 506.652 516.271C507.432 516.788 508.226 517.287 509.03 517.767C509.328 517.944 509.628 518.118 509.93 518.29C510.696 518.728 511.474 519.148 512.26 519.552C512.491 519.671 512.719 519.796 512.952 519.912C513.951 520.408 514.964 520.874 515.991 521.311C516.247 521.419 516.506 521.518 516.762 521.623C517.572 521.954 518.388 522.267 519.214 522.562C519.535 522.676 519.856 522.791 520.179 522.899C521.12 523.216 522.068 523.512 523.027 523.782C523.166 523.82 523.302 523.866 523.44 523.904C524.368 524.158 525.304 524.39 526.246 524.596C525.304 524.803 524.368 525.035 523.44 525.288C523.302 525.326 523.166 525.372 523.027 525.411C522.068 525.68 521.12 525.975 520.179 526.292C519.856 526.402 519.535 526.516 519.214 526.631C518.388 526.926 517.572 527.239 516.762 527.57C516.506 527.675 516.247 527.772 515.991 527.882C514.964 528.319 513.951 528.784 512.952 529.28C512.719 529.395 512.491 529.522 512.26 529.64C511.474 530.043 510.696 530.463 509.93 530.902C509.628 531.075 509.328 531.248 509.03 531.426C508.226 531.906 507.432 532.403 506.652 532.922C506.486 533.031 506.315 533.135 506.15 533.247C505.227 533.872 504.324 534.53 503.438 535.21C503.19 535.399 502.948 535.596 502.704 535.791C502.035 536.32 501.378 536.864 500.732 537.424C500.479 537.643 500.224 537.86 499.975 538.084C499.135 538.838 498.308 539.608 497.511 540.412C497.494 540.431 497.476 540.45 497.459 540.468C496.676 541.259 495.923 542.08 495.186 542.918C494.966 543.168 494.751 543.423 494.535 543.676C493.968 544.343 493.416 545.024 492.878 545.718C492.692 545.958 492.503 546.192 492.322 546.435C491.67 547.303 491.034 548.187 490.428 549.096ZM534.891 523.139C534.483 523.112 534.08 523.055 533.674 523.019C532.872 522.947 532.071 522.882 531.278 522.775C530.794 522.711 530.316 522.614 529.835 522.536C529.128 522.422 528.419 522.318 527.719 522.178C527.207 522.074 526.704 521.94 526.198 521.822C525.538 521.67 524.875 521.527 524.222 521.351C523.702 521.21 523.192 521.039 522.676 520.883C522.05 520.694 521.419 520.514 520.8 520.302C520.278 520.123 519.767 519.916 519.251 519.722C518.654 519.498 518.051 519.282 517.462 519.036C516.944 518.822 516.439 518.579 515.928 518.348C515.356 518.09 514.78 517.839 514.218 517.56C513.708 517.31 513.212 517.034 512.712 516.767C512.164 516.475 511.614 516.191 511.076 515.88C510.579 515.594 510.096 515.284 509.608 514.982C509.087 514.659 508.562 514.343 508.051 514.003C507.57 513.682 507.102 513.34 506.63 513.004C506.134 512.651 505.634 512.302 505.148 511.931C504.684 511.578 504.236 511.204 503.783 510.835C503.312 510.452 502.839 510.074 502.38 509.674C501.938 509.288 501.508 508.883 501.078 508.483C500.634 508.071 500.188 507.663 499.756 507.235C499.336 506.819 498.931 506.386 498.524 505.954C498.107 505.515 497.69 505.076 497.287 504.622C496.892 504.175 496.512 503.714 496.131 503.254C495.744 502.787 495.356 502.32 494.983 501.84C494.615 501.364 494.262 500.875 493.908 500.386C493.551 499.894 493.195 499.4 492.854 498.895C492.514 498.391 492.191 497.876 491.867 497.36C491.656 497.024 491.45 496.684 491.246 496.343L511.944 484.392L536.095 523.18C535.694 523.162 535.29 523.166 534.891 523.139ZM585.224 497.366C584.902 497.878 584.58 498.39 584.243 498.89C583.898 499.402 583.538 499.899 583.178 500.398C582.828 500.88 582.479 501.364 582.115 501.834C581.738 502.322 581.344 502.794 580.951 503.267C580.575 503.72 580.202 504.176 579.811 504.616C579.403 505.078 578.978 505.523 578.555 505.97C578.154 506.394 577.756 506.82 577.343 507.23C576.904 507.664 576.451 508.08 575.999 508.499C575.575 508.892 575.155 509.29 574.719 509.67C574.252 510.075 573.771 510.462 573.292 510.851C572.847 511.212 572.407 511.579 571.951 511.927C571.458 512.303 570.95 512.659 570.444 513.018C569.98 513.348 569.52 513.684 569.047 513.999C568.53 514.344 567.996 514.667 567.467 514.994C566.986 515.291 566.51 515.596 566.02 515.879C565.476 516.192 564.918 516.482 564.363 516.776C563.87 517.039 563.382 517.311 562.88 517.559C562.311 517.84 561.728 518.094 561.15 518.355C560.646 518.583 560.146 518.823 559.634 519.036C559.04 519.283 558.434 519.5 557.831 519.727C557.319 519.919 556.814 520.124 556.295 520.302C555.674 520.514 555.039 520.695 554.408 520.886C553.896 521.04 553.39 521.21 552.872 521.35C552.218 521.528 551.551 521.671 550.89 521.824C550.384 521.94 549.884 522.075 549.376 522.178C548.675 522.319 547.964 522.423 547.255 522.536C546.775 522.614 546.299 522.711 545.816 522.775C545.023 522.882 544.222 522.947 543.42 523.019C543.014 523.055 542.611 523.112 542.203 523.139C541.804 523.166 541.4 523.162 540.999 523.18L565.15 484.392L585.848 496.343C585.643 496.686 585.436 497.027 585.224 497.366ZM588.668 494.892L588.367 494.718C588.367 494.716 588.366 494.716 588.366 494.716C588.366 494.716 588.366 494.716 588.364 494.716L539.214 466.338C538.802 466.102 538.292 466.102 537.88 466.338L488.73 494.716C488.73 494.716 488.727 494.716 488.727 494.718L488.426 494.892C488.015 495.13 487.762 495.57 487.762 496.046V553.147C487.762 553.622 488.015 554.062 488.426 554.3L488.727 554.475C488.727 554.475 488.728 554.475 488.728 554.476L537.88 582.854C538.086 582.972 538.316 583.032 538.547 583.032C538.778 583.032 539.008 582.972 539.214 582.854L588.364 554.476H588.366C588.366 554.475 588.367 554.475 588.367 554.475L588.668 554.3C589.079 554.062 589.332 553.622 589.332 553.147V496.046C589.332 495.57 589.079 495.13 588.668 494.892Z" fill="#464342"/>
</g>
</svg>
