<?xml version="1.0" encoding="utf-8"?><svg version="1.1" id="Layer_1" xmlns="http://www.w3.org/2000/svg" xmlns:xlink="http://www.w3.org/1999/xlink" x="0px" y="0px" viewBox="0 0 122.88 63.87" style="enable-background:new 0 0 122.88 63.87" xml:space="preserve"><style type="text/css">.st0{fill-rule:evenodd;clip-rule:evenodd;}</style><g><path class="st0" d="M7.23,0h111.93c2.05,0,3.72,1.68,3.72,3.72v31.62c0,2.04-1.68,3.72-3.72,3.72H34.18 c-0.83-0.7-1.9-1.21-3.3-1.45c-0.11-0.03-0.23-0.05-0.35-0.07l-0.04,0c-0.21-0.38-0.46-0.73-0.76-1.06 c-0.86-0.95-2.03-1.63-3.62-1.91l-0.07-0.02c-0.09-0.02-0.19-0.04-0.29-0.05c-0.16-0.02-0.3-0.03-0.42-0.03h-0.05 c-0.15-0.23-0.32-0.44-0.51-0.65c-0.06-0.07-0.12-0.14-0.19-0.21C23.8,32.86,22.8,32.29,21.5,32v-1.9c0-1.68-0.39-3.13-1.03-4.34 c-0.77-1.44-1.9-2.49-3.17-3.14c-0.48-0.24-1-0.43-1.54-0.56c-0.56-0.14-1.11-0.2-1.62-0.2c-0.54,0-1.09,0.06-1.63,0.19 c-0.46,0.11-0.91,0.27-1.36,0.48l-0.19,0.09c-1.27,0.65-2.39,1.7-3.15,3.16c-0.63,1.2-1.01,2.67-1.01,4.37v7.98 c-0.19-0.11-0.38-0.21-0.57-0.31c-0.59-0.29-1.18-0.5-1.77-0.63l-0.14-0.03c-0.12-0.02-0.24-0.04-0.36-0.06 c-0.28-0.52-0.44-1.12-0.44-1.75V3.72C3.51,1.68,5.18,0,7.23,0L7.23,0z M9.63,46.06c-0.05-0.03-0.1-0.06-0.15-0.1 c-0.63-0.5-1.31-1.06-1.91-1.55c-0.86-0.71-1.86-1.53-2.56-2.11c-0.48-0.4-1.02-0.67-1.53-0.77c-0.33-0.06-0.63-0.06-0.86,0.04 c-0.19,0.08-0.35,0.23-0.47,0.48c-0.14,0.32-0.21,0.77-0.17,1.39c0.04,0.54,0.22,1.14,0.48,1.71c0.37,0.85,0.88,1.62,1.25,2.12 c0.02,0.03,0.04,0.06,0.06,0.09l7.5,10.71c0.1,0.14,0.15,0.29,0.17,0.45h0c0.15,1.24,0.41,2.16,0.8,2.75 c0.28,0.42,0.65,0.64,1.1,0.62h0.02v0h11.69c0.03,0,0.05,0,0.08,0c0.73-0.01,1.4-0.23,2.01-0.65c0.67-0.46,1.28-1.18,1.84-2.15 c0.01-0.02,0.02-0.03,0.03-0.05c0.21-0.37,0.5-0.84,0.77-1.29c1.2-1.97,2.24-3.68,2.36-6.12l-0.08-3.37 c-0.01-0.05-0.01-0.1-0.01-0.14c0-0.05,0.01-0.36,0.01-0.79c0.03-2.22,0.06-4.98-1.97-5.32h-1.3h-0.01 c-0.01,0.63-0.05,1.26-0.09,1.88c-0.04,0.55-0.07,1.08-0.07,1.59c0,0.55-0.44,0.99-0.99,0.99c-0.55,0-0.99-0.44-0.99-0.99 c0-0.51,0.04-1.1,0.08-1.71c0.13-2.09,0.29-4.5-1.39-4.8h-1.3c-0.07,0-0.14-0.01-0.21-0.02c0.01,0.76-0.04,1.55-0.09,2.3 c-0.03,0.55-0.07,1.08-0.07,1.59c0,0.55-0.44,0.99-0.99,0.99c-0.55,0-0.99-0.44-0.99-0.99c0-0.51,0.04-1.1,0.08-1.71 c0.13-2.09,0.29-4.5-1.39-4.8h-1.3c-0.09,0-0.18-0.01-0.26-0.04v3.83c0,0.55-0.44,0.99-0.99,0.99s-0.99-0.44-0.99-0.99V29.85 c0-1.72-0.7-2.81-1.6-3.26c-0.33-0.17-0.68-0.25-1.03-0.25c-0.35,0-0.7,0.08-1.03,0.25c-0.89,0.45-1.58,1.54-1.58,3.3v18 c0,0.55-0.44,0.99-0.99,0.99c-0.55,0-0.99-0.44-0.99-0.99L9.63,46.06L9.63,46.06L9.63,46.06z M18.83,34.38 c0.08-0.02,0.17-0.04,0.26-0.04h1.36c0.08,0,0.15,0.01,0.22,0.03c1.82,0.28,2.63,1.34,2.96,2.71c0.13-0.06,0.27-0.09,0.42-0.09 h1.36c0.08,0,0.15,0.01,0.22,0.03c1.95,0.3,2.74,1.51,3.02,3.02c0.05-0.01,0.1-0.01,0.15-0.01h1.36c0.08,0,0.15,0.01,0.22,0.03 c3.74,0.58,3.7,4.3,3.66,7.3c0,0.11,0,0.22,0,0.76v0.02l0.08,3.46c0,0.04,0,0.07,0,0.11c-0.14,2.94-1.31,4.86-2.65,7.06 c-0.23,0.37-0.45,0.75-0.75,1.26c-0.01,0.01-0.01,0.03-0.02,0.04c-0.7,1.22-1.51,2.16-2.43,2.79c-0.94,0.65-1.98,0.98-3.12,1 c-0.03,0-0.06,0-0.09,0H13.36v0c-1.18,0.02-2.09-0.49-2.76-1.5c-0.54-0.81-0.9-1.94-1.09-3.37L2.16,48.5 c-0.01-0.01-0.02-0.03-0.03-0.04c-0.44-0.59-1.03-1.49-1.48-2.5c-0.33-0.76-0.59-1.58-0.64-2.39c-0.06-0.95,0.07-1.72,0.34-2.32 c0.34-0.75,0.87-1.23,1.52-1.5c0.61-0.25,1.29-0.28,1.98-0.14c0.83,0.16,1.68,0.58,2.41,1.18c0.6,0.49,1.59,1.31,2.56,2.1 l0.81,0.66V29.89c0-2.62,1.17-4.3,2.66-5.07c0.6-0.31,1.26-0.46,1.92-0.46c0.66,0,1.32,0.15,1.92,0.46 c1.51,0.76,2.69,2.45,2.69,5.02V34.38L18.83,34.38L18.83,34.38z M25.27,10.43h4.98c1.57,0,2.77,0.11,3.58,0.35 c0.81,0.23,1.46,0.7,1.96,1.41c0.5,0.71,0.75,1.85,0.75,3.42c0,1.06-0.17,1.8-0.53,2.22c-0.35,0.42-1.05,0.74-2.09,0.97 c1.16,0.25,1.95,0.66,2.36,1.23c0.41,0.57,0.62,1.45,0.62,2.64v1.69c0,1.23-0.15,2.14-0.45,2.73c-0.3,0.59-0.77,1-1.41,1.22 c-0.65,0.22-1.98,0.33-3.99,0.33h-5.78V10.43L25.27,10.43z M30.28,13.53v4.05c0.21-0.01,0.37-0.01,0.49-0.01 c0.48,0,0.79-0.11,0.92-0.34c0.13-0.23,0.2-0.89,0.2-1.96c0-0.57-0.05-0.97-0.16-1.2c-0.11-0.23-0.25-0.37-0.43-0.43 C31.12,13.57,30.78,13.54,30.28,13.53L30.28,13.53z M30.28,20.41v5.11c0.69-0.02,1.13-0.13,1.32-0.31 c0.19-0.19,0.28-0.65,0.28-1.39v-1.7c0-0.78-0.09-1.25-0.26-1.42C31.46,20.52,31.01,20.43,30.28,20.41L30.28,20.41z M50.11,21.09 c0,1.83-0.04,3.12-0.14,3.88c-0.09,0.76-0.37,1.46-0.85,2.09s-1.13,1.11-1.94,1.45c-0.81,0.34-1.76,0.51-2.85,0.51 c-1.03,0-1.95-0.16-2.77-0.48c-0.82-0.32-1.48-0.79-1.97-1.43c-0.5-0.64-0.79-1.33-0.89-2.08c-0.09-0.75-0.14-2.06-0.14-3.93v-3.11 c0-1.83,0.04-3.12,0.14-3.88c0.09-0.76,0.37-1.46,0.85-2.09c0.48-0.63,1.13-1.11,1.94-1.45c0.81-0.34,1.76-0.51,2.85-0.51 c1.03,0,1.95,0.16,2.77,0.48c0.82,0.32,1.48,0.79,1.97,1.43c0.5,0.64,0.79,1.33,0.89,2.08c0.09,0.75,0.14,2.06,0.14,3.93V21.09 L50.11,21.09z M45.1,15.11c0-0.84-0.05-1.38-0.15-1.62c-0.1-0.23-0.3-0.35-0.6-0.35c-0.26,0-0.45,0.1-0.59,0.29 c-0.13,0.19-0.2,0.75-0.2,1.69v8.49c0,1.05,0.04,1.71,0.13,1.95c0.09,0.25,0.3,0.37,0.62,0.37c0.33,0,0.55-0.14,0.64-0.43 c0.09-0.28,0.14-0.96,0.14-2.03V15.11L45.1,15.11z M63.4,21.09c0,1.83-0.04,3.12-0.14,3.88c-0.09,0.76-0.37,1.46-0.85,2.09 c-0.48,0.63-1.13,1.11-1.94,1.45c-0.81,0.34-1.76,0.51-2.85,0.51c-1.03,0-1.95-0.16-2.77-0.48c-0.82-0.32-1.48-0.79-1.97-1.43 c-0.5-0.64-0.79-1.33-0.89-2.08c-0.09-0.75-0.14-2.06-0.14-3.93v-3.11c0-1.83,0.04-3.12,0.14-3.88c0.09-0.76,0.37-1.46,0.85-2.09 c0.48-0.63,1.13-1.11,1.94-1.45c0.81-0.34,1.76-0.51,2.85-0.51c1.03,0,1.95,0.16,2.77,0.48c0.82,0.32,1.48,0.79,1.97,1.43 c0.5,0.64,0.79,1.33,0.89,2.08c0.09,0.75,0.14,2.06,0.14,3.93V21.09L63.4,21.09z M58.39,15.11c0-0.84-0.05-1.38-0.15-1.62 c-0.1-0.23-0.3-0.35-0.6-0.35c-0.26,0-0.45,0.1-0.59,0.29c-0.13,0.19-0.2,0.75-0.2,1.69v8.49c0,1.05,0.04,1.71,0.13,1.95 c0.09,0.25,0.3,0.37,0.62,0.37c0.33,0,0.55-0.14,0.64-0.43c0.09-0.28,0.14-0.96,0.14-2.03V15.11L58.39,15.11z M77.21,10.43 l-2.86,8.22l3.13,9.98h-5.16l-2.03-7.8v7.8h-5.01V10.43h5.01v7.07l2.25-7.07H77.21L77.21,10.43z M83.34,10.43v18.19h-5.01V10.43 H83.34L83.34,10.43z M96.51,10.43v18.19h-4.38l-2.6-8.27v8.27h-4.18V10.43h4.18l2.8,8.19v-8.19H96.51L96.51,10.43z M109.97,17.14 h-5.01v-1.65c0-1.04-0.04-1.69-0.14-1.96c-0.09-0.26-0.32-0.39-0.67-0.39c-0.3,0-0.51,0.11-0.62,0.34 c-0.11,0.22-0.16,0.8-0.16,1.73v8.73c0,0.81,0.05,1.35,0.16,1.61c0.11,0.26,0.32,0.39,0.65,0.39c0.36,0,0.6-0.15,0.73-0.44 c0.13-0.29,0.19-0.86,0.19-1.71v-2.15h-0.97v-2.76h5.84v9.75h-3.15l-0.46-1.3c-0.34,0.56-0.77,0.99-1.29,1.27 c-0.52,0.28-1.13,0.43-1.83,0.43c-0.84,0-1.62-0.19-2.36-0.58c-0.73-0.39-1.29-0.86-1.66-1.43c-0.38-0.57-0.62-1.17-0.71-1.79 c-0.09-0.62-0.14-1.56-0.14-2.81v-5.41c0-1.74,0.1-3,0.3-3.78c0.2-0.79,0.77-1.51,1.7-2.17c0.94-0.66,2.15-0.98,3.64-0.98 c1.46,0,2.68,0.28,3.64,0.85c0.96,0.57,1.6,1.25,1.89,2.03c0.29,0.79,0.44,1.92,0.44,3.42V17.14L109.97,17.14z"/></g></svg>