<svg xmlns="http://www.w3.org/2000/svg" shape-rendering="geometricPrecision" text-rendering="geometricPrecision" image-rendering="optimizeQuality" fill-rule="evenodd" clip-rule="evenodd" viewBox="0 0 439 511.716"><path d="M359.751 195.173c17.509 7.331 29.811 24.624 29.811 44.793 0 17.261-9.014 32.42-22.589 41.025 6.387 9.362 13.964 18.91 21.689 28.646 16.128 20.328 32.878 41.431 42.609 65.223 5.609 13.708 8.033 27.78 7.699 41.429-.477 19.257-6.422 37.678-16.664 53.079-10.304 15.491-24.986 27.994-42.869 35.31-11.76 4.81-24.855 7.354-38.928 7.007-11.99-.295-23.305-2.695-33.663-6.779-19.401-7.651-35.623-21.215-46.854-38.069-11.204-16.815-17.447-36.977-16.929-57.865a97.548 97.548 0 016.808-33.473c9.323-23.635 26.075-44.686 42.327-65.111 7.993-10.043 15.86-19.928 22.435-29.677-13.331-8.65-22.153-23.67-22.153-40.745 0-20.169 12.3-37.462 29.809-44.793-12.513-6.697-21.027-19.892-21.027-35.075 0-18.508 12.644-34.06 29.764-38.491V97.613c0-5.561 4.512-10.074 10.073-10.074a33.6 33.6 0 0023.829-9.865 33.6 33.6 0 009.865-23.829 33.604 33.604 0 00-9.865-23.831v-.039c-6.067-6.069-14.494-9.828-23.829-9.828-9.309 0-17.739 3.774-23.833 9.867a33.608 33.608 0 00-9.865 23.831c0 5.562-4.512 10.074-10.073 10.074-5.561 0-10.074-4.512-10.074-10.074 0-14.865 6.03-28.33 15.771-38.072C312.769 6.03 326.234 0 341.099 0c14.826 0 28.287 6.037 38.05 15.793l.02-.02c9.741 9.742 15.771 23.207 15.771 38.072 0 14.864-6.03 28.329-15.771 38.07-7.485 7.485-17.169 12.779-27.996 14.829v14.905c17.04 4.485 29.608 19.998 29.608 38.449 0 15.183-8.517 28.378-21.03 35.075zm-243.033 0c17.509 7.331 29.811 24.624 29.811 44.793 0 17.261-9.014 32.42-22.588 41.025 6.386 9.362 13.963 18.91 21.689 28.646 16.127 20.328 32.877 41.431 42.609 65.223 5.608 13.708 8.032 27.78 7.698 41.429-.476 19.257-6.422 37.678-16.664 53.079-10.303 15.491-24.986 27.994-42.869 35.31-11.759 4.81-24.855 7.354-38.927 7.007-11.99-.295-23.306-2.695-33.664-6.779-19.401-7.651-35.623-21.215-46.854-38.069C5.755 450.022-.488 429.86.03 408.972a97.55 97.55 0 016.809-33.473c9.322-23.635 26.074-44.686 42.326-65.111 7.993-10.043 15.86-19.928 22.435-29.677-13.331-8.65-22.152-23.67-22.152-40.745 0-20.169 12.299-37.462 29.808-44.793-12.513-6.697-21.027-19.892-21.027-35.075 0-18.508 12.645-34.06 29.764-38.491V97.613c0-5.561 4.513-10.074 10.074-10.074a33.6 33.6 0 0023.828-9.865 33.6 33.6 0 009.865-23.829 33.604 33.604 0 00-9.865-23.831v-.039c-6.067-6.069-14.494-9.828-23.828-9.828-9.31 0-17.74 3.774-23.834 9.867a33.608 33.608 0 00-9.865 23.831c0 5.562-4.512 10.074-10.073 10.074-5.562 0-10.074-4.512-10.074-10.074 0-14.865 6.03-28.33 15.771-38.072C69.736 6.03 83.201 0 98.067 0c14.826 0 28.286 6.037 38.05 15.793l.019-.02c9.741 9.742 15.771 23.207 15.771 38.072 0 14.864-6.03 28.329-15.771 38.07-7.485 7.485-17.169 12.779-27.996 14.829v14.905c17.04 4.485 29.608 19.998 29.608 38.449 0 15.183-8.517 28.378-21.03 35.075zm-12.82 92.976a48.92 48.92 0 01-12.412-.077c-7.556 11.784-16.779 23.372-26.161 35.164-15.302 19.232-31.078 39.054-39.252 59.781-3.476 8.816-5.222 17.736-5.435 26.442-.411 16.521 4.582 32.55 13.532 45.983 8.928 13.398 21.796 24.171 37.16 30.23a77.7 77.7 0 0026.633 5.405c11.176.275 21.492-1.713 30.681-5.469 13.874-5.678 25.326-15.466 33.418-27.635 8.155-12.262 12.888-26.9 13.267-42.17.268-10.936-1.671-22.212-6.161-33.183-8.531-20.858-24.409-40.864-39.699-60.135-9.183-11.574-18.168-22.899-25.571-34.336zm-6.141 34.998c6.885 32.278 65.56 68.74 37.093 114.717-8.13 13.127-22.579 19.794-37.021 19.437-13.75-.342-27.496-7.1-35.767-19.484-30.616-45.84 28.626-81.53 35.695-114.67zm.233-106.494c12.872 0 23.31 10.438 23.31 23.313 0 6.912-3.02 13.133-7.81 17.407-9.138 8.12-23.022 7.85-31.784-.726a23.233 23.233 0 01-7.029-16.681c0-12.875 10.438-23.313 23.313-23.313zm0-75.65c10.544 0 19.093 8.548 19.093 19.095 0 10.545-8.549 19.093-19.093 19.093-10.547 0-19.096-8.548-19.096-19.093 0-10.547 8.549-19.095 19.096-19.095zm248.941 147.146a48.864 48.864 0 01-12.411-.077c-7.558 11.784-16.781 23.372-26.162 35.164-15.302 19.232-31.078 39.054-39.252 59.781-3.476 8.816-5.222 17.736-5.435 26.442-.411 16.521 4.582 32.55 13.532 45.983 8.928 13.398 21.795 24.171 37.16 30.23a77.69 77.69 0 0026.632 5.405c11.177.275 21.493-1.713 30.682-5.469 13.874-5.678 25.325-15.466 33.418-27.635 8.155-12.262 12.887-26.9 13.267-42.17.267-10.936-1.671-22.212-6.161-33.183-8.531-20.858-24.409-40.864-39.699-60.135-9.183-11.574-18.168-22.899-25.571-34.336zm-6.141 34.998c6.884 32.278 65.56 68.74 37.092 114.717-8.129 13.127-22.579 19.794-37.021 19.437-13.75-.342-27.495-7.1-35.766-19.484-30.617-45.84 28.626-81.53 35.695-114.67zm.233-106.494c12.872 0 23.31 10.438 23.31 23.313 0 6.912-3.02 13.133-7.81 17.407-9.139 8.12-23.023 7.85-31.784-.726a23.233 23.233 0 01-7.029-16.681c0-12.875 10.438-23.313 23.313-23.313zm0-75.65c10.544 0 19.093 8.548 19.093 19.095 0 10.545-8.549 19.093-19.093 19.093-10.547 0-19.096-8.548-19.096-19.093 0-10.547 8.549-19.095 19.096-19.095z"/></svg>