<svg xmlns="http://www.w3.org/2000/svg" shape-rendering="geometricPrecision" text-rendering="geometricPrecision" image-rendering="optimizeQuality" fill-rule="evenodd" clip-rule="evenodd" viewBox="0 0 512 306.798"><path d="M382.094 145.999c-3.704.701-7.39 1.372-11.057 2.013a20.274 20.274 0 015.362 4.418 88.162 88.162 0 015.695-6.431zm-134.56 38.761c9.893.106 19.992-.041 30.301-.443l.011.12c-.051-.613-.1-1.233-.144-1.862-.365-5.174-.497-10.948-.41-16.715l.026-2.234c.018-1.688.038-3.518.088-5.434-8.786.332-17.451.47-25.996.419-42.722-.26-82.375-5.265-119.055-14.586l1.935 26.811.045.001c.467.003.94.061 1.413.179 34.044 8.633 71.234 13.308 111.786 13.744zm30.937 5.502c-53.326 2.103-101.239-2.561-144.173-13.448L16.721 204.902c152.807 36.309 195.472 91.934 294.954 95.717 54.338 2.066 108.622-10.822 156.59-41.85 11.583-7.492 22.257-15.63 31.879-24.509 7.601-7.918 8.736-14.071-1.909-17.008l-58.653-19.233c-.131.433-.27.854-.416 1.263-1.95 5.457-5.366 9.371-9.787 11.642-4.341 2.23-9.51 2.778-15.065 1.554l-.411-.11a32.003 32.003 0 01-3.491-1.021c-7.101-2.539-13.354-7.465-19.046-11.948-1.584-1.245-3.149-2.478-3.584-2.808a523.876 523.876 0 01-7.162-5.519 391.465 391.465 0 01-3.785-3.024 20.335 20.335 0 01-2.062 2.21l23.603 33.837a2.279 2.279 0 01-3.735 2.609l-23.544-33.753a19.887 19.887 0 01-5.133 2.053l-.001 32.964a2.278 2.278 0 01-4.556 0l.001-32.392-.2.003a19.882 19.882 0 01-11.933-3.98l-13.35 28.539a2.283 2.283 0 01-4.128-1.948l13.991-29.907-.2-.245c-4.557 3.275-12.084 8.389-19.082 12.953-7.753 5.057-15.018 9.53-17.33 10.356-1.112.398-2.28.738-3.49 1.021l-.412.11c-5.556 1.223-10.723.676-15.063-1.554-4.422-2.271-7.837-6.184-9.788-11.64a28.581 28.581 0 01-.947-3.282l-.048-.196c-.368-1.663-.686-3.528-.957-5.544zm162.372 1.884l59.239 19.424c8.083 2.3 11.724 6.484 11.912 12.132.153 4.61-2.581 9.475-7.373 14.513a6.17 6.17 0 01-.432.44 224.476 224.476 0 01-15.625 13.126c-5.402 4.144-11.094 8.139-17.05 11.992a265.11 265.11 0 01-75.778 33.622c-27.495 7.348-55.872 10.265-84.271 9.185-53.814-2.045-91.003-18.757-137.106-39.491-27.105 1.523-67.771 1.431-103.767-6.49-26.282-5.784-50.226-15.791-65.145-32.444-2.099-2.343-3.479-4.757-4.321-7.084l-.115-.351c-.965-2.828-1.166-5.523-.909-7.843.33-2.977 1.967-5.777 4.175-8.046 2.154-2.214 5.007-4.069 7.604-5.028.197-.073.407-.141.623-.203a20.784 20.784 0 012.221-.65l117.754-27.828-4.091.966c-1.187-16.391-2.186-30.575-2.194-47.152 0-59.996 34.239-98.407 78.067-115.224 33.747-12.95 73.242-12.949 106.993.001 43.835 16.821 78.085 55.235 78.085 115.223v14.403c4.867-4.024 9.782-7.297 14.525-10.233l.089-.053a56.256 56.256 0 015.568-2.895c1.849-.824 3.629-1.474 5.336-1.947 15.063-4.181 21.918 3.956 25.057 15.264 2.182 7.865 2.282 17.206 2.356 24.151l.027 2.234c.086 5.769-.044 11.541-.411 16.717-.24 3.452-.59 6.698-1.043 9.569zm-278.707 69.496c-47.317 1.48-121.437-3.073-152.247-37.461-3.381-3.774-4.177-7.68-3.849-10.649.177-1.582 1.202-3.212 2.598-4.624 64.177 15.306 114.731 35.639 153.498 52.734zm177.271-115.657a768.489 768.489 0 0043.947-7.178v-13.871c0-158.594-251.176-158.639-251.176 0V136.9c36.229 9.207 77.172 14.641 119.259 14.896a584.87 584.87 0 0026.31-.438c.316-4.016.882-8.118 1.928-11.883 3.138-11.308 9.994-19.445 25.056-15.264 7.062 1.958 16.137 7.212 24.472 13.401a135.323 135.323 0 0110.204 8.373zm40.063 11.828c8.55-11.037 17.775-17.85 26.787-23.429 3.558-2.09 6.031-3.549 9.014-4.377 22.329-6.195 21.459 21.702 21.669 35.907.16 10.762-.479 20.789-2.046 27.908-2.623 11.921-11.44 16.332-22.945 12.218-7.883-2.817-15.063-9.255-21.416-14.077-3.809-2.892-7.564-4.823-11.25-7.8a19.864 19.864 0 001.957-8.616v-10.1c0-3.245-.383-4.914-1.77-7.634zm-36.716-.209c-9.428-10.735-25.609-24.516-37.435-27.797-22.331-6.198-21.459 21.902-21.669 36.107-.16 10.762.481 21.792 2.047 28.909 2.621 11.92 11.84 15.328 23.345 11.217 3.857-1.378 24.666-16.338 33.709-22.86-1.266-2.62-1.575-4.548-1.575-7.633v-10.1c0-3.247.187-5.12 1.578-7.843zm18.454-7.615c8.503 0 15.459 6.956 15.459 15.458v10.1c0 8.502-6.956 15.458-15.459 15.458s-15.459-6.956-15.459-15.458v-10.1c0-8.502 6.956-15.458 15.459-15.458z"/></svg>