<svg version="1.2" xmlns="http://www.w3.org/2000/svg" viewBox="0 0 188 182" width="188" height="182">
	<style>
		.s0 { fill: #ffffff } 
	</style>
	<g id="&lt;Group&gt;">
		<g id="&lt;Group&gt;">
			<path id="&lt;Compound Path&gt;" fill-rule="evenodd" class="s0" d="m5.25 93.51c0-7.76 4.66-14.55 11.9-17.32l13.93-5.34 2.28-0.87-8.02-17.98c-3.56-8.01-1.87-17.19 4.33-23.39 3.98-3.98 9.23-6.16 14.79-6.16q4.46 0 8.6 1.84l17.98 8.01 0.87-2.28 5.33-13.94c2.78-7.22 9.58-11.9 17.32-11.9 3.87 0 7.5 1.18 10.51 3.24 3.03 2.08 5.42 5.05 6.8 8.66l5.34 13.94 0.87 2.28 17.98-8.01c2.74-1.23 5.63-1.84 8.6-1.84 5.55 0 10.81 2.18 14.78 6.16 6.21 6.2 7.9 15.38 4.33 23.39l-8.02 17.98 2.29 0.87 13.93 5.34c7.24 2.77 11.91 9.56 11.91 17.32 0 7.74-4.67 14.53-11.91 17.3l-13.93 5.34-2.29 0.87 8.02 17.98c3.57 8.01 1.88 17.19-4.33 23.39-3.97 3.98-9.23 6.17-14.78 6.17-2.97 0-5.86-0.62-8.6-1.85l-17.98-8.01-0.87 2.29-5.34 13.93c-2.77 7.22-9.57 11.9-17.31 11.9-7.75 0-14.54-4.68-17.32-11.9l-5.33-13.93-0.88-2.29-17.97 8.01c-2.75 1.23-5.64 1.85-8.6 1.85-5.55 0-10.81-2.19-14.79-6.17-6.2-6.2-7.89-15.38-4.33-23.39l8.03-17.97-2.29-0.88-13.93-5.34c-7.24-2.77-11.9-9.56-11.9-17.3zm102.7 56.67l-7.24-3.24q-2.94-1.29-6.15-1.3c-2.13 0-4.21 0.44-6.16 1.3l-7.23 3.23 0.87 2.29 5.55 14.49c1.7 4.45 5.77 4.79 6.97 4.79 1.2 0 5.26-0.34 6.97-4.79l5.54-14.49zm45.57-69.19l-2.29-0.87-5.06 11.34c-0.58 1.3-0.58 2.79 0 4.08l5.06 11.36h0.01l2.29-0.88 14.48-5.55c4.44-1.71 4.79-5.76 4.79-6.96 0-1.22-0.35-5.27-4.79-6.97zm-72.36-44.16l7.24 3.23c1.95 0.87 4.02 1.3 6.16 1.3q3.21 0 6.14-1.3l7.25-3.23-0.87-2.29-5.55-14.48c-1.72-4.45-5.77-4.8-6.97-4.8-1.21 0-5.27 0.35-6.97 4.8l-5.55 14.48zm-43.48 9.66l8.31 18.65 4.53 10.12 4.76 10.69c2.15 4.81 2.15 10.31 0 15.1l-4.76 10.69 2.29 0.88 2.28 0.88 6.36 2.42c4.91 1.88 8.8 5.78 10.67 10.68l2.44 6.36-0.25 0.1-9.88 4.41-2.65-6.9c-0.75-1.98-2.33-3.55-4.3-4.3l-6.9-2.64-2.3-0.88-2.29-0.88-8.31 18.64c-1.94 4.35 0.69 7.46 1.54 8.31 0.63 0.64 2.51 2.25 5.21 2.25 0.94 0 1.98-0.2 3.1-0.7l18.65-8.32 10.13-4.52 6.58-2.93c3.71-1.65 7.68-2.49 11.66-2.49 3.97 0 7.95 0.84 11.66 2.49l6.57 2.93 0.88-2.28 0.88-2.29 0.82-2.16c2.9-7.57 8.92-13.58 16.49-16.48l2.15-0.82 0.1 0.23 4.42 9.9-2.71 1.04c-4.64 1.77-8.33 5.45-10.1 10.1l-1.04 2.7-0.87 2.29-0.88 2.29 18.63 8.32c1.13 0.5 2.18 0.7 3.12 0.7 2.7 0 4.57-1.61 5.2-2.25 0.86-0.85 3.48-3.96 1.54-8.31l-8.31-18.64-4.52-10.13-4.77-10.69c-2.14-4.79-2.14-10.29 0-15.1l4.76-10.68-2.28-0.87-2.29-0.88-6.36-2.44c-4.9-1.88-8.8-5.77-10.67-10.68l-2.43-6.35 0.24-0.11 9.89-4.4 2.64 6.9c0.75 1.97 2.32 3.54 4.3 4.29l6.9 2.66 2.29 0.87 2.29 0.88 8.32-18.65c1.94-4.35-0.68-7.46-1.54-8.31-0.63-0.64-2.5-2.24-5.2-2.24-0.94 0-1.99 0.19-3.12 0.7l-18.63 8.31-10.14 4.53-6.57 2.93c-3.71 1.65-7.69 2.48-11.66 2.48-3.98 0-7.95-0.83-11.66-2.48l-6.58-2.93-0.88 2.29-0.87 2.28-0.83 2.15c-2.9 7.58-8.91 13.59-16.49 16.49l-2.15 0.82-0.11-0.24-4.4-9.89 2.71-1.04c4.64-1.77 8.33-5.45 10.1-10.1l1.04-2.7 0.87-2.3 0.88-2.29-18.65-8.31c-1.12-0.51-2.16-0.7-3.11-0.7-2.69 0-4.57 1.6-5.2 2.24-0.85 0.85-3.48 3.96-1.54 8.31zm-21.38 47.02c0 1.2 0.35 5.25 4.8 6.96l14.48 5.55 2.29 0.88 5.07-11.36c0.57-1.29 0.57-2.78-0.01-4.08l-5.06-11.34-2.29 0.87-14.48 5.55c-4.45 1.7-4.8 5.75-4.8 6.97z"/>
			<path id="&lt;Path&gt;" class="s0" d="m430.94 181.74q2.92 0 4.83-1.45 1.9-1.44 2.71-4.41l-3.55-1.13q-0.46 2-1.51 2.92-1.05 0.93-2.52 0.93-1.98 0-3.22-1.46-1.23-1.46-1.23-4.9 0-3.25 1.25-4.7 1.26-1.45 3.28-1.45 1.46 0.01 2.48 0.82 1.02 0.82 1.35 2.23l3.62-0.87q-0.62-2.18-1.85-3.34-2.08-1.97-5.42-1.97-3.81 0-6.15 2.51-2.34 2.51-2.34 7.04 0 4.28 2.33 6.76 2.33 2.47 5.94 2.47z"/>
			<path id="&lt;Compound Path&gt;" fill-rule="evenodd" class="s0" d="m461.16 165.45q2.41 2.49 2.41 6.92 0 4.4-2.39 6.88-2.39 2.49-6.39 2.49-4.05 0-6.44-2.47-2.39-2.48-2.39-6.81 0-2.77 0.83-4.66 0.62-1.38 1.69-2.49 1.07-1.1 2.34-1.63 1.7-0.72 3.92-0.72 4.01 0 6.42 2.49zm-1.38 6.84q0-3.12-1.37-4.66-1.37-1.54-3.64-1.54-2.26 0.01-3.65 1.56-1.39 1.55-1.39 4.69 0 3.08 1.43 4.67 1.42 1.59 3.61 1.59 2.2 0 3.6-1.58 1.41-1.58 1.41-4.73z"/>
			<path id="&lt;Path&gt;" class="s0" d="m480.23 175.66l-3.29-12.39h-5.49v18.16h3.41v-14.29l3.59 14.29h3.53l3.6-14.29v14.29h3.41v-18.16h-5.5z"/>
			<path id="&lt;Path&gt;" class="s0" d="m515.18 181.43v-18.16h-5.49l-3.26 12.39-3.3-12.39h-5.48v18.16h3.4v-14.29l3.6 14.29h3.52l3.61-14.29v14.29z"/>
			<path id="&lt;Path&gt;" class="s0" d="m523.87 163.27v9.69q0 3.04 0.36 4.6 0.25 1.05 1.03 2.01 0.78 0.96 2.12 1.56 1.35 0.61 3.95 0.61 2.15 0 3.49-0.56 1.34-0.55 2.14-1.48 0.79-0.92 1.09-2.27 0.3-1.35 0.3-4.62v-9.54h-3.67v10.04q0 2.16-0.16 3.09-0.16 0.93-0.95 1.56-0.79 0.64-2.36 0.64-1.53 0-2.42-0.67-0.88-0.68-1.12-1.79-0.13-0.7-0.13-3.04v-9.83z"/>
			<path id="&lt;Path&gt;" class="s0" d="m558.32 175.4l-7.43-12.13h-3.57v18.16h3.41v-11.84l7.31 11.84h3.68v-18.16h-3.4z"/>
			<path id="&lt;Path&gt;" class="s0" d="m574.23 163.27h-3.67v18.16h3.67z"/>
			<path id="&lt;Path&gt;" class="s0" d="m581.49 166.34h5.39v15.09h3.66v-15.09h5.38v-3.07h-14.43z"/>
			<path id="&lt;Path&gt;" class="s0" d="m601.47 163.27l6.65 10.52v7.64h3.65v-7.62l6.68-10.54h-4.22l-4.19 7.18-4.27-7.18z"/>
			<path id="&lt;Path&gt;" class="s0" d="m425.44 196.34h1.16v-2.99l2.68-3.93h-0.63l-2.39 3.51-2.4-3.51h-1.19l2.77 4.04z"/>
			<path id="&lt;Compound Path&gt;" fill-rule="evenodd" class="s0" d="m433.49 195.43q-0.52-0.5-0.81-1.17-0.3-0.66-0.3-1.42 0-0.74 0.3-1.4 0.29-0.65 0.81-1.13 0.51-0.48 1.21-0.76 0.7-0.28 1.5-0.28 0.8 0 1.5 0.28 0.7 0.28 1.21 0.76 0.52 0.48 0.81 1.13 0.29 0.66 0.29 1.4 0 0.76-0.29 1.42-0.29 0.67-0.81 1.17-0.51 0.5-1.21 0.78-0.7 0.29-1.5 0.29-0.8 0-1.5-0.29-0.7-0.28-1.21-0.78zm0.26-2.59q0 0.72 0.15 1.33 0.16 0.61 0.47 1.05 0.3 0.44 0.76 0.69 0.47 0.24 1.07 0.24 0.59 0 1.05-0.24 0.45-0.25 0.76-0.69 0.32-0.44 0.48-1.05 0.16-0.61 0.16-1.33 0-0.71-0.16-1.3-0.16-0.6-0.48-1.03-0.31-0.43-0.76-0.66-0.46-0.24-1.05-0.24-0.6 0-1.07 0.24-0.46 0.23-0.76 0.66-0.31 0.43-0.47 1.03-0.15 0.59-0.15 1.3z"/>
			<path id="&lt;Path&gt;" class="s0" d="m444.23 189.42v4.46q0 0.54 0.19 1.02 0.19 0.47 0.57 0.83 0.37 0.36 0.92 0.57 0.55 0.2 1.26 0.2 0.81 0 1.38-0.2 0.58-0.21 0.94-0.56 0.37-0.36 0.54-0.83 0.17-0.47 0.17-1v-4.49h-0.51v4.49q0 0.44-0.15 0.83-0.15 0.39-0.42 0.68-0.28 0.29-0.68 0.46-0.39 0.17-0.89 0.17-0.49 0-0.89-0.17-0.4-0.17-0.68-0.46-0.28-0.29-0.43-0.68-0.16-0.39-0.16-0.83v-4.49z"/>
			<path id="&lt;Compound Path&gt;" fill-rule="evenodd" class="s0" d="m458.62 192.73q-0.31 0.16-0.69 0.25l2.52 3.36h-1.35l-2.4-3.25h-0.82v3.25h-1.16v-6.92h2.4q0.62 0 1.09 0.14 0.47 0.13 0.78 0.37 0.31 0.24 0.47 0.57 0.16 0.33 0.16 0.72 0 0.33-0.12 0.61-0.12 0.28-0.35 0.51-0.22 0.23-0.53 0.39zm-0.26-1.46q0-0.31-0.1-0.57-0.11-0.26-0.3-0.45-0.2-0.19-0.47-0.29-0.27-0.1-0.59-0.1h-1.02v2.88h0.68q0.38 0 0.72-0.1 0.33-0.1 0.57-0.29 0.24-0.2 0.38-0.47 0.13-0.27 0.13-0.61z"/>
			<path id="&lt;Path&gt;" class="s0" d="m468.57 189.87h2.5v6.47h1.17v-6.47h2.5v-0.45h-6.17z"/>
			<path id="&lt;Compound Path&gt;" fill-rule="evenodd" class="s0" d="m480.77 189.27l3.25 7.07h-1.18l-1.06-2.31h-2.96l-1.1 2.31h-0.58l3.34-7.07zm0.8 4.32l-1.26-2.74-1.29 2.74z"/>
			<path id="&lt;Path&gt;" class="s0" d="m489.49 190.62q0.38-0.41 0.91-0.63 0.53-0.23 1.16-0.23 0.69 0 1.23 0.39 0.53 0.39 0.97 1.23l0.5-0.33q-0.21-0.35-0.51-0.67-0.3-0.33-0.68-0.57-0.38-0.24-0.85-0.39-0.47-0.15-1.02-0.15-0.86 0-1.57 0.3-0.72 0.29-1.23 0.8-0.52 0.51-0.8 1.17-0.28 0.66-0.28 1.39 0 0.73 0.3 1.38 0.29 0.65 0.82 1.14 0.53 0.48 1.26 0.77 0.72 0.28 1.58 0.28 0.54 0 0.97-0.04 0.43-0.04 0.78-0.13 0.36-0.08 0.67-0.21 0.31-0.12 0.61-0.29v-3.04h-2.47v0.41h1.31v2.43q-0.29 0.23-0.66 0.35-0.36 0.12-0.82 0.12-0.63 0-1.18-0.22-0.54-0.22-0.95-0.63-0.4-0.42-0.63-1-0.23-0.59-0.23-1.32 0-0.73 0.21-1.31 0.21-0.59 0.6-1z"/>
			<path id="&lt;Path&gt;" class="s0" d="m498.83 189.42v6.92h4.64v-0.45h-3.48v-6.47z"/>
			<path id="&lt;Path&gt;" class="s0" d="m507.34 196.34h1.16v-6.92h-1.16z"/>
			<path id="&lt;Path&gt;" class="s0" d="m518.89 189.42h-0.51v5.06h-0.05l-4.53-5.06h-0.65v6.92h0.52v-5.46h0.04l4.91 5.62h0.27z"/>
			<path id="&lt;Path&gt;" class="s0" d="m523.53 196.34h4.8v-0.45h-3.64v-3.1h2.44v-0.44h-2.44v-2.48h3.64v-0.45h-4.8z"/>
			<path id="&lt;Path&gt;" class="s0" d="m540.29 190.62q0.38-0.41 0.91-0.63 0.53-0.23 1.16-0.23 0.69 0 1.22 0.39 0.54 0.39 0.98 1.23l0.5-0.33q-0.21-0.35-0.51-0.67-0.3-0.33-0.68-0.57-0.38-0.24-0.85-0.39-0.47-0.15-1.02-0.15-0.86 0-1.58 0.3-0.71 0.29-1.22 0.8-0.52 0.51-0.8 1.17-0.28 0.66-0.28 1.39 0 0.73 0.29 1.38 0.3 0.65 0.83 1.14 0.53 0.48 1.26 0.77 0.72 0.28 1.58 0.28 0.54 0 0.97-0.04 0.43-0.04 0.78-0.13 0.36-0.08 0.67-0.21 0.3-0.12 0.61-0.29v-3.04h-2.47v0.41h1.31v2.43q-0.29 0.23-0.66 0.35-0.37 0.12-0.82 0.12-0.63 0-1.18-0.22-0.54-0.22-0.95-0.63-0.4-0.42-0.63-1-0.23-0.59-0.23-1.32 0-0.73 0.21-1.31 0.21-0.59 0.6-1z"/>
			<path id="&lt;Compound Path&gt;" fill-rule="evenodd" class="s0" d="m555.85 195.43q-0.51 0.5-1.21 0.78-0.7 0.29-1.5 0.29-0.8 0-1.5-0.29-0.7-0.28-1.21-0.78-0.52-0.5-0.81-1.17-0.29-0.66-0.29-1.42 0-0.74 0.29-1.4 0.29-0.65 0.81-1.13 0.51-0.48 1.21-0.76 0.7-0.28 1.5-0.28 0.8 0 1.5 0.28 0.7 0.28 1.21 0.76 0.52 0.48 0.81 1.13 0.3 0.66 0.3 1.4 0 0.76-0.3 1.42-0.29 0.67-0.81 1.17zm-0.26-2.59q0-0.71-0.16-1.3-0.16-0.6-0.47-1.03-0.31-0.43-0.77-0.66-0.45-0.24-1.05-0.24-0.6 0-1.06 0.24-0.46 0.23-0.77 0.66-0.31 0.43-0.47 1.03-0.15 0.59-0.15 1.3 0 0.72 0.15 1.33 0.16 0.61 0.47 1.05 0.31 0.44 0.77 0.69 0.46 0.24 1.06 0.24 0.6 0 1.05-0.24 0.46-0.25 0.77-0.69 0.31-0.44 0.47-1.05 0.16-0.61 0.16-1.33z"/>
			<path id="&lt;Path&gt;" class="s0" d="m561.3 196.34h4.8v-0.45h-3.64v-3.1h2.44v-0.44h-2.44v-2.48h3.64v-0.45h-4.8z"/>
			<path id="&lt;Path&gt;" class="s0" d="m573.15 195.78q-0.2 0.14-0.45 0.21-0.25 0.07-0.51 0.07-0.68 0-1.18-0.38-0.5-0.38-0.72-1.06l-0.63 0.26q0.28 0.76 0.87 1.19 0.59 0.43 1.58 0.43 0.61 0 1.08-0.15 0.46-0.16 0.78-0.43 0.31-0.27 0.46-0.63 0.16-0.36 0.16-0.77 0-0.37-0.17-0.66-0.16-0.3-0.44-0.55-0.28-0.24-0.63-0.45-0.35-0.22-0.71-0.41-0.37-0.19-0.72-0.38-0.35-0.19-0.63-0.39-0.27-0.2-0.44-0.43-0.17-0.22-0.17-0.49 0-0.2 0.08-0.38 0.09-0.19 0.25-0.34 0.16-0.14 0.41-0.23 0.24-0.1 0.57-0.1 0.74 0 1.18 0.4 0.45 0.39 0.65 1.03l0.6-0.27q-0.26-0.78-0.82-1.19-0.57-0.41-1.56-0.41-0.54 0-0.96 0.14-0.42 0.14-0.71 0.39-0.28 0.25-0.43 0.58-0.15 0.34-0.15 0.74 0 0.4 0.16 0.7 0.17 0.31 0.43 0.55 0.27 0.25 0.61 0.45 0.34 0.2 0.7 0.38 0.35 0.19 0.69 0.37 0.35 0.18 0.61 0.39 0.27 0.21 0.43 0.45 0.16 0.25 0.16 0.57 0 0.26-0.12 0.46-0.12 0.2-0.31 0.34z"/>
			<path id="&lt;Path&gt;" class="s0" d="m590.49 196.34v-6.92h-1.16v3.15h-3.48v-3.15h-1.16v6.92h1.16v-3.32h3.48v3.32z"/>
			<path id="&lt;Path&gt;" class="s0" d="m599.94 189.87v-0.45h-4.8v6.92h4.8v-0.45h-3.64v-3.1h2.44v-0.44h-2.44v-2.48z"/>
			<path id="&lt;Compound Path&gt;" fill-rule="evenodd" class="s0" d="m608.04 192.73q-0.31 0.16-0.69 0.25l2.52 3.36h-1.35l-2.4-3.25h-0.82v3.25h-1.16v-6.92h2.4q0.62 0 1.09 0.14 0.47 0.13 0.78 0.37 0.31 0.24 0.47 0.57 0.16 0.33 0.16 0.72 0 0.33-0.12 0.61-0.12 0.28-0.34 0.51-0.23 0.23-0.54 0.39zm-0.25-1.46q0-0.31-0.11-0.57-0.11-0.26-0.3-0.45-0.2-0.19-0.47-0.29-0.27-0.1-0.59-0.1h-1.02v2.88h0.68q0.39 0 0.72-0.1 0.33-0.1 0.57-0.29 0.25-0.2 0.38-0.47 0.14-0.27 0.14-0.61z"/>
		</g>
		<path id="&lt;Path&gt;" class="s0" d="m618.45 189.87v-0.45h-4.81v6.92h4.81v-0.45h-3.65v-3.1h2.44v-0.44h-2.44v-2.48z"/>
	</g>
</svg>