<svg xmlns="http://www.w3.org/2000/svg" shape-rendering="geometricPrecision" text-rendering="geometricPrecision" image-rendering="optimizeQuality" fill-rule="evenodd" clip-rule="evenodd" viewBox="0 0 462 511.837"><path d="M99.691 257.189h-5.813v254.648h5.813c5.76 0 10.472-4.713 10.472-10.473v-.134h7.766c6.689 0 12.781-2.743 17.205-7.159l.018-.018c4.416-4.424 7.159-10.518 7.159-17.206V292.178c0-6.708-2.741-12.807-7.158-17.223-4.416-4.417-10.514-7.16-17.224-7.16h-7.766v-.134c0-5.76-4.735-10.472-10.472-10.472zM4.079 291.378C-16.792 138.741 62.187-.012 231.019 0c168.817.01 249.174 139.036 226.902 291.378H462c-3.768 66.109-9.365 111.499-24.082 128.168v37.809c0 6.497-5.317 11.816-11.815 11.816h-9.644v10.355c0 17.758-18.883 32.311-36.653 32.311h-2.957V257.189h2.957c17.757 0 36.653 14.552 36.653 32.312v10.352h9.644c6.496 0 11.815 5.317 11.815 11.813V341.1c5.062-13.064 6.923-30.397 7.293-49.722h3.479c8.541-136.741-74.443-240.347-217.648-240.369C87.801 50.986 4.768 154.6 13.31 291.378h3.479c.37 19.325 2.231 36.658 7.293 49.722v-29.434c0-6.496 5.319-11.813 11.815-11.813h9.644v-10.352c0-17.76 18.896-32.312 36.653-32.312h2.957v254.648h-2.957c-17.77 0-36.653-14.553-36.653-32.311v-10.355h-9.644c-6.498 0-11.815-5.319-11.815-11.816v-37.809C9.365 402.877 3.768 357.487 0 291.378h4.079zm345.644-15.127h-5.652c-4.375 0-8.357 1.794-11.246 4.682-2.887 2.888-4.681 6.871-4.681 11.245v184.669c0 4.385 1.788 8.369 4.666 11.245l.017.017a15.863 15.863 0 0011.244 4.666h5.652V276.251zm-5.652-8.456h7.766v-.134c0-5.76 4.735-10.472 10.472-10.472h5.813v254.648h-5.813c-5.76 0-10.472-4.713-10.472-10.473v-.134h-7.766c-6.689 0-12.781-2.743-17.205-7.159l-.018-.018c-4.416-4.424-7.159-10.518-7.159-17.206V292.178c0-6.708 2.741-12.807 7.158-17.223 4.416-4.417 10.514-7.16 17.224-7.16zm-226.142 8.456h-5.652v216.524h5.652c4.386 0 8.368-1.788 11.244-4.666l.017-.017a15.868 15.868 0 004.666-11.245V292.178c0-4.374-1.794-8.357-4.681-11.245-2.889-2.888-6.871-4.682-11.246-4.682z"/></svg>