<svg xmlns="http://www.w3.org/2000/svg" shape-rendering="geometricPrecision" text-rendering="geometricPrecision" image-rendering="optimizeQuality" fill-rule="evenodd" clip-rule="evenodd" viewBox="0 0 512 468.552"><path d="M45.451 148.06h421.098v206.032c0 37.884-31.129 69.009-69.013 69.009H114.464c-37.907 0-69.013-31.102-69.013-69.009V148.06zM97.632 0h36.134l-56.57 129.552H28.619v241.372c0 18.956 7.777 36.205 20.289 48.717 12.519 12.519 29.777 20.292 48.724 20.292h316.736c18.941 0 36.195-7.78 48.714-20.298 12.519-12.519 20.299-29.774 20.299-48.711V129.552h-103.43l55.552-127.23c18.413 4.102 34.911 13.441 47.817 26.351C501.017 46.363 512 70.787 512 97.632v273.292c0 26.841-10.995 51.255-28.683 68.946-17.69 17.69-42.111 28.682-68.949 28.682H97.632c-26.845 0-51.268-10.985-68.959-28.676C10.989 422.192 0 397.784 0 370.924V97.632c0-26.867 10.983-51.281 28.667-68.965C46.351 10.983 70.765 0 97.632 0zm74.07 0h96.149l-56.57 129.552h-96.15L171.702 0zm133.629 0h93.252l-56.567 129.552h-93.258L305.331 0zM330.2 198.284v114.101c0 10.744-.06 22.57-14.818 30.683-9.73 5.35-22.229 6.492-31.294.423-15.258-10.311-7.214-29.083 6.418-36.866 5.165-2.948 11.11-4.688 16.762-4.688v-55.953l-62.492 17.961v69.553c0 13.969-1.263 24.398-15.871 33.304-4.345 2.646-9.332 4.59-14.612 5.499-7.933 1.336-16.336.484-23.155-4.09-10.349-6.937-11.73-19.045-5.951-29.077 7.22-12.656 22.452-19.443 36.758-18.444v-98.945l108.258-23.461h-.003z"/></svg>