<svg xmlns="http://www.w3.org/2000/svg" shape-rendering="geometricPrecision" text-rendering="geometricPrecision" image-rendering="optimizeQuality" fill-rule="evenodd" clip-rule="evenodd" viewBox="0 0 512 255.707"><path d="M264.664 118.74v9.215a3.785 3.785 0 01-3.769 3.77h-12.609v12.61a3.782 3.782 0 01-3.768 3.768h-9.215a3.783 3.783 0 01-3.77-3.768v-12.61h-12.61a3.783 3.783 0 01-3.769-3.77v-9.215a3.78 3.78 0 013.769-3.769h12.61v-12.61a3.78 3.78 0 013.77-3.769h9.215a3.781 3.781 0 013.768 3.769v12.61h12.609a3.784 3.784 0 013.769 3.769zM50.837 97.249h59.513c37.152-19.388 82.449-35.31 128.838-42.919V43.098c0-1.711.655-3.288 1.729-4.487l.252-.281a6.734 6.734 0 014.768-1.981h21.112V25.406H80.597a6.61 6.61 0 010-13.219h186.57a13.991 13.991 0 013.991-8.078A13.966 13.966 0 01281.048 0c3.851 0 7.353 1.575 9.888 4.109a13.995 13.995 0 013.992 8.078h186.57a6.61 6.61 0 010 13.219H295.046v10.943h21.112c1.856 0 3.549.761 4.769 1.98a6.74 6.74 0 011.98 4.769v7.613c57.795 5.388 110.436 29.116 143.413 81.209 5.055 7.986 12.61 23.283 16.149 37.76 2.6 10.632 3.061 21.019-.971 28.457-2.417 4.457-6.203 7.874-11.333 10.169-4.662 2.086-10.445 3.201-17.325 3.277h-.038v.02h-24.406l11.435 28.096c12.069.459 23.008.182 32.556-2.043 9.986-2.329 18.592-6.898 25.625-15.274a7.917 7.917 0 0112.143 10.161c-9.508 11.323-20.967 17.46-34.175 20.539-12.291 2.867-25.93 2.977-40.897 2.239l-228.685.003v-.017c-12.254.526-22.136-.886-31.51-4.505-9.325-3.599-17.801-9.256-27.382-17.268a7.917 7.917 0 0110.161-12.143c8.322 6.959 15.464 11.787 22.922 14.666 6.015 2.323 12.476 3.462 20.231 3.537l11.763-32.599.116-.303-102.52-62.449H42.658l-17.555 53.779H.074l9.687-59.568a29.335 29.335 0 01-1.203-1.137l-.02-.02C3.264 132.022 0 124.741 0 116.706c0-8.035 3.264-15.318 8.538-20.593v-.02c.283-.283.572-.561.867-.831L.074 37.884h25.029L42.35 90.72a29.321 29.321 0 017.392 5.374l.032.032c.364.364.718.74 1.063 1.123zm360.485 114.354H227.671c-.061.24-.134.481-.219.721l-9.793 27.138h204.972l-11.085-27.233a8.088 8.088 0 01-.224-.626zM29.149 98.216c10.211 0 18.49 8.278 18.49 18.489 0 10.212-8.279 18.49-18.49 18.49-10.211 0-18.488-8.278-18.488-18.49 0-10.211 8.277-18.489 18.488-18.489zM239.91 78.121c24.977 0 45.226 20.249 45.226 45.227 0 24.978-20.249 45.226-45.226 45.226-24.978 0-45.227-20.248-45.227-45.226 0-24.978 20.249-45.227 45.227-45.227zm91.664-14.817c63.79 8.362 113.347 38.845 137.204 99.878H331.574V63.304z"/></svg>