<?xml version="1.0" encoding="UTF-8" standalone="no"?>
<!-- Created with Inkscape (http://www.inkscape.org/) -->

<svg
   version="1.1"
   id="svg1"
   width="3112"
   height="2286.5867"
   viewBox="0 0 3112 2286.5867"
   sodipodi:docname="4117.eps"
   xmlns:inkscape="http://www.inkscape.org/namespaces/inkscape"
   xmlns:sodipodi="http://sodipodi.sourceforge.net/DTD/sodipodi-0.dtd"
   xmlns="http://www.w3.org/2000/svg"
   xmlns:svg="http://www.w3.org/2000/svg">
  <defs
     id="defs1" />
  <sodipodi:namedview
     id="namedview1"
     pagecolor="#ffffff"
     bordercolor="#000000"
     borderopacity="0.25"
     inkscape:showpageshadow="2"
     inkscape:pageopacity="0.0"
     inkscape:pagecheckerboard="0"
     inkscape:deskcolor="#d1d1d1">
    <inkscape:page
       x="0"
       y="0"
       inkscape:label="1"
       id="page1"
       width="3112"
       height="2286.5867"
       margin="0"
       bleed="0" />
  </sodipodi:namedview>
  <g
     id="g1"
     inkscape:groupmode="layer"
     inkscape:label="1">
    <g
       id="group-R5">
      <path
         id="path2"
         d="M 0,0 H 23340 V 17149.4 H 0 Z"
         style="fill:#ffffff;fill-opacity:1;fill-rule:nonzero;stroke:none"
         transform="matrix(0.13333333,0,0,-0.13333333,0,2286.5867)" />
      <path
         id="path3"
         d="M 6595.45,2143.7 6166.34,6712.1 H 19593.4 L 19070.3,2143.7 H 6595.45"
         style="fill:#ffc3a2;fill-opacity:1;fill-rule:evenodd;stroke:none"
         transform="matrix(0.13333333,0,0,-0.13333333,0,2286.5867)" />
      <path
         id="path4"
         d="M 6595.45,6712.1 4848.07,13362.4 3443.52,6585.4 3939.43,2143.7 H 6595.45 V 6712.1"
         style="fill:#d0394e;fill-opacity:1;fill-rule:evenodd;stroke:none"
         transform="matrix(0.13333333,0,0,-0.13333333,0,2286.5867)" />
      <path
         id="path5"
         d="M 18863.2,2320.7 H 6837.82 v -177 H 18847.3 l 15.9,177"
         style="fill:#d0394e;fill-opacity:1;fill-rule:evenodd;stroke:none"
         transform="matrix(0.13333333,0,0,-0.13333333,0,2286.5867)" />
      <path
         id="path6"
         d="M 17699,14193.4 20422.5,6146.8 H 6595.45 l -1878.69,7630 -1632.62,-7630 -166.64,30.6 1755.48,8016 c 4872.31,-193.9 9009.42,-266.4 13026.02,0"
         style="fill:#5d2b56;fill-opacity:1;fill-rule:evenodd;stroke:none"
         transform="matrix(0.13333333,0,0,-0.13333333,0,2286.5867)" />
      <path
         id="path7"
         d="m 15896,9007.11 191.4,-799.98 2759.9,75.19 -177.1,676.21 -2774.2,48.58"
         style="fill:#d0394e;fill-opacity:1;fill-rule:evenodd;stroke:none"
         transform="matrix(0.13333333,0,0,-0.13333333,0,2286.5867)" />
      <path
         id="path8"
         d="m 8143.45,13362.4 430.48,-1367 2990.47,78.6 -202,1288.4 H 8143.45"
         style="fill:#6d040f;fill-opacity:1;fill-rule:evenodd;stroke:none"
         transform="matrix(0.13333333,0,0,-0.13333333,0,2286.5867)" />
      <path
         id="path9"
         d="m 7069.55,11974.4 -308.09,1388 h -631.84 l 482.58,-1379.9 457.35,-8.1"
         style="fill:#6d040f;fill-opacity:1;fill-rule:evenodd;stroke:none"
         transform="matrix(0.13333333,0,0,-0.13333333,0,2286.5867)" />
      <path
         id="path10"
         d="m 16492.6,12170.3 293.3,-723.4 1583.8,67.8 -241.1,697 -1636,-41.4"
         style="fill:#d0394e;fill-opacity:1;fill-rule:evenodd;stroke:none"
         transform="matrix(0.13333333,0,0,-0.13333333,0,2286.5867)" />
      <path
         id="path11"
         d="m 9053.88,9962.33 -374.8,1137.77 2271.02,97.1 48.1,-1199.37 -1944.32,-35.5"
         style="fill:#d0394e;fill-opacity:1;fill-rule:evenodd;stroke:none"
         transform="matrix(0.13333333,0,0,-0.13333333,0,2286.5867)" />
      <path
         id="path12"
         d="m 7911.75,9932.12 -820.4,1123.58 -1311.62,-56.2 386.61,-1092.82 1745.41,25.44"
         style="fill:#d0394e;fill-opacity:1;fill-rule:evenodd;stroke:none"
         transform="matrix(0.13333333,0,0,-0.13333333,0,2286.5867)" />
      <path
         id="path13"
         d="m 7790.85,7957.37 -849.34,1174.3 2848.26,-41.59 V 8016.13 l -1998.92,-58.76"
         style="fill:#6d040f;fill-opacity:1;fill-rule:evenodd;stroke:none"
         transform="matrix(0.13333333,0,0,-0.13333333,0,2286.5867)" />
      <path
         id="path14"
         d="m 17632.5,6146.8 -122.3,697.3 2652.3,70.8 260,-768.1 h -2790"
         style="fill:#6d040f;fill-opacity:1;fill-rule:evenodd;stroke:none"
         transform="matrix(0.13333333,0,0,-0.13333333,0,2286.5867)" />
      <path
         id="path15"
         d="M 17980.2,13348.2 H 4848.07 v 28.4 H 17980.2 v -28.4"
         style="fill:#6d040f;fill-opacity:1;fill-rule:nonzero;stroke:none"
         transform="matrix(0.13333333,0,0,-0.13333333,0,2286.5867)" />
      <path
         id="path16"
         d="m 5345.53,11922.1 -0.63,28.3 13024.5,275.5 0.6,-28.4 -13024.47,-275.4"
         style="fill:#6d040f;fill-opacity:1;fill-rule:nonzero;stroke:none"
         transform="matrix(0.13333333,0,0,-0.13333333,0,2286.5867)" />
      <path
         id="path17"
         d="m 5626.76,10978.8 -1.16,28.3 12976.1,531.7 1.1,-28.3 -12976.04,-531.7"
         style="fill:#6d040f;fill-opacity:1;fill-rule:nonzero;stroke:none"
         transform="matrix(0.13333333,0,0,-0.13333333,0,2286.5867)" />
      <path
         id="path18"
         d="m 5951.34,9887.92 -0.55,28.35 13057.41,266.33 0.6,-28.3 -13057.46,-266.38"
         style="fill:#6d040f;fill-opacity:1;fill-rule:nonzero;stroke:none"
         transform="matrix(0.13333333,0,0,-0.13333333,0,2286.5867)" />
      <path
         id="path19"
         d="m 19470.6,8944.34 -13290.28,173.14 0.39,28.36 13290.29,-173.16 -0.4,-28.34"
         style="fill:#6d040f;fill-opacity:1;fill-rule:nonzero;stroke:none"
         transform="matrix(0.13333333,0,0,-0.13333333,0,2286.5867)" />
      <path
         id="path20"
         d="m 6536.85,7922.51 -0.79,28.35 13107.24,369.04 0.8,-28.34 -13107.25,-369.05"
         style="fill:#6d040f;fill-opacity:1;fill-rule:nonzero;stroke:none"
         transform="matrix(0.13333333,0,0,-0.13333333,0,2286.5867)" />
      <path
         id="path21"
         d="m 6708.88,7345.6 -1.22,28.34 13108.44,576.92 1.2,-28.35 L 6708.88,7345.6"
         style="fill:#6d040f;fill-opacity:1;fill-rule:nonzero;stroke:none"
         transform="matrix(0.13333333,0,0,-0.13333333,0,2286.5867)" />
      <path
         id="path22"
         d="m 6941.88,6562.4 -0.73,28.4 13221.05,338.3 0.7,-28.4 -13221.02,-338.3"
         style="fill:#6d040f;fill-opacity:1;fill-rule:nonzero;stroke:none"
         transform="matrix(0.13333333,0,0,-0.13333333,0,2286.5867)" />
      <path
         id="path23"
         d="m 8283.67,11079.1 -307.23,898.8 26.8,9.2 307.22,-898.8 -26.79,-9.2"
         style="fill:#6d040f;fill-opacity:1;fill-rule:nonzero;stroke:none"
         transform="matrix(0.13333333,0,0,-0.13333333,0,2286.5867)" />
      <path
         id="path24"
         d="m 16344.2,10109.7 -208.8,1307.8 28,4.4 208.9,-1307.7 -28.1,-4.5"
         style="fill:#6d040f;fill-opacity:1;fill-rule:nonzero;stroke:none"
         transform="matrix(0.13333333,0,0,-0.13333333,0,2286.5867)" />
      <path
         id="path25"
         d="m 7779.38,7949.08 -849.35,1174.27 22.98,16.62 849.34,-1174.28 -22.97,-16.61"
         style="fill:#6d040f;fill-opacity:1;fill-rule:nonzero;stroke:none"
         transform="matrix(0.13333333,0,0,-0.13333333,0,2286.5867)" />
      <path
         id="path26"
         d="m 10545.8,6142 3046.3,6759.9 2404.1,-6874.5 -158.1,-3883.7 H 10684.6 L 10545.8,6142"
         style="fill:#ffc3a2;fill-opacity:1;fill-rule:evenodd;stroke:none"
         transform="matrix(0.13333333,0,0,-0.13333333,0,2286.5867)" />
      <path
         id="path27"
         d="m 3084.14,6146.8 421.68,-119.4 -62.3,558 1404.55,6777 -131.31,414.4 -1632.62,-7630"
         style="fill:#6d040f;fill-opacity:1;fill-rule:evenodd;stroke:none"
         transform="matrix(0.13333333,0,0,-0.13333333,0,2286.5867)" />
      <path
         id="path28"
         d="m 6595.45,6146.8 h 474.1 l -2396.57,8046.6 -1755.48,-8016 166.64,-30.6 1632.62,7630 1878.69,-7630"
         style="fill:#6d040f;fill-opacity:1;fill-rule:evenodd;stroke:none"
         transform="matrix(0.13333333,0,0,-0.13333333,0,2286.5867)" />
      <path
         id="path29"
         d="M 9486.94,6142 9643.15,2143.7 H 10684.6 L 10545.8,6142 H 9486.94"
         style="fill:#d0394e;fill-opacity:1;fill-rule:evenodd;stroke:none"
         transform="matrix(0.13333333,0,0,-0.13333333,0,2286.5867)" />
      <path
         id="path30"
         d="m 15100.7,8177.33 -3463.3,121.32 0.5,14.18 3463.3,-121.33 -0.5,-14.17"
         style="fill:#d0394e;fill-opacity:1;fill-rule:nonzero;stroke:none"
         transform="matrix(0.13333333,0,0,-0.13333333,0,2286.5867)" />
      <path
         id="path31"
         d="m 11855,8777.28 -0.1,14.17 2980.5,39.37 0.2,-14.17 -2980.6,-39.37"
         style="fill:#d0394e;fill-opacity:1;fill-rule:nonzero;stroke:none"
         transform="matrix(0.13333333,0,0,-0.13333333,0,2286.5867)" />
      <path
         id="path32"
         d="m 14449.2,9747.5 h -2149.9 v 14.18 h 2149.9 v -14.18"
         style="fill:#d0394e;fill-opacity:1;fill-rule:nonzero;stroke:none"
         transform="matrix(0.13333333,0,0,-0.13333333,0,2286.5867)" />
      <path
         id="path33"
         d="m 14276.7,10163 h -1792.6 v 14.2 h 1792.6 v -14.2"
         style="fill:#d0394e;fill-opacity:1;fill-rule:nonzero;stroke:none"
         transform="matrix(0.13333333,0,0,-0.13333333,0,2286.5867)" />
      <path
         id="path34"
         d="m 13863.8,11139.7 h -936.3 v 14.1 h 936.3 v -14.1"
         style="fill:#d0394e;fill-opacity:1;fill-rule:nonzero;stroke:none"
         transform="matrix(0.13333333,0,0,-0.13333333,0,2286.5867)" />
      <path
         id="path35"
         d="m 15492.4,7234.14 h -4338.1 v 14.17 h 4338.1 v -14.17"
         style="fill:#d0394e;fill-opacity:1;fill-rule:nonzero;stroke:none"
         transform="matrix(0.13333333,0,0,-0.13333333,0,2286.5867)" />
      <path
         id="path36"
         d="m 10914.1,6704.9 v 14.2 l 4827.1,44.6 v -14.2 l -4827.1,-44.6"
         style="fill:#d0394e;fill-opacity:1;fill-rule:nonzero;stroke:none"
         transform="matrix(0.13333333,0,0,-0.13333333,0,2286.5867)" />
      <path
         id="path37"
         d="m 10777.5,5361.7 -0.3,14.2 5049.2,104.1 0.3,-14.2 -5049.2,-104.1"
         style="fill:#d0394e;fill-opacity:1;fill-rule:nonzero;stroke:none"
         transform="matrix(0.13333333,0,0,-0.13333333,0,2286.5867)" />
      <path
         id="path38"
         d="m 15789,5083.5 h -5006.4 v 14.2 H 15789 v -14.2"
         style="fill:#d0394e;fill-opacity:1;fill-rule:nonzero;stroke:none"
         transform="matrix(0.13333333,0,0,-0.13333333,0,2286.5867)" />
      <path
         id="path39"
         d="m 15732.6,3828.1 -4927.5,61.5 0.1,14.2 4927.6,-61.5 -0.2,-14.2"
         style="fill:#d0394e;fill-opacity:1;fill-rule:nonzero;stroke:none"
         transform="matrix(0.13333333,0,0,-0.13333333,0,2286.5867)" />
      <path
         id="path40"
         d="m 15725.8,3674.3 h -4916.6 v 14.1 h 4916.6 v -14.1"
         style="fill:#d0394e;fill-opacity:1;fill-rule:nonzero;stroke:none"
         transform="matrix(0.13333333,0,0,-0.13333333,0,2286.5867)" />
      <path
         id="path41"
         d="m 10822.4,3000.8 -0.9,14.2 4886.5,284.8 0.8,-14.2 -4886.4,-284.8"
         style="fill:#d0394e;fill-opacity:1;fill-rule:nonzero;stroke:none"
         transform="matrix(0.13333333,0,0,-0.13333333,0,2286.5867)" />
      <path
         id="path42"
         d="m 10830.7,2542.5 -0.2,14.2 4847.1,58.1 0.2,-14.1 -4847.1,-58.2"
         style="fill:#d0394e;fill-opacity:1;fill-rule:nonzero;stroke:none"
         transform="matrix(0.13333333,0,0,-0.13333333,0,2286.5867)" />
      <path
         id="path43"
         d="m 14671,7239.61 -226.4,965.9 13.8,3.21 226.4,-965.89 -13.8,-3.22"
         style="fill:#d0394e;fill-opacity:1;fill-rule:nonzero;stroke:none"
         transform="matrix(0.13333333,0,0,-0.13333333,0,2286.5867)" />
      <path
         id="path44"
         d="m 12969.7,9753.75 -49.2,415.55 14.1,1.6 49.2,-415.48 -14.1,-1.67"
         style="fill:#d0394e;fill-opacity:1;fill-rule:nonzero;stroke:none"
         transform="matrix(0.13333333,0,0,-0.13333333,0,2286.5867)" />
      <path
         id="path45"
         d="m 19217.1,5781 h -3230.6 v 14.1 h 3230.6 V 5781"
         style="fill:#d0394e;fill-opacity:1;fill-rule:nonzero;stroke:none"
         transform="matrix(0.13333333,0,0,-0.13333333,0,2286.5867)" />
      <path
         id="path46"
         d="m 19187.8,5343.6 -3216.5,70.1 0.4,14.2 3216.4,-70.1 -0.3,-14.2"
         style="fill:#d0394e;fill-opacity:1;fill-rule:nonzero;stroke:none"
         transform="matrix(0.13333333,0,0,-0.13333333,0,2286.5867)" />
      <path
         id="path47"
         d="m 15931.3,4420.8 -0.4,14.1 3158.2,101.5 0.5,-14.2 -3158.3,-101.4"
         style="fill:#d0394e;fill-opacity:1;fill-rule:nonzero;stroke:none"
         transform="matrix(0.13333333,0,0,-0.13333333,0,2286.5867)" />
      <path
         id="path48"
         d="m 19050.4,4138.1 h -3130.8 v 14.2 h 3130.8 v -14.2"
         style="fill:#d0394e;fill-opacity:1;fill-rule:nonzero;stroke:none"
         transform="matrix(0.13333333,0,0,-0.13333333,0,2286.5867)" />
      <path
         id="path49"
         d="M 18991.6,3558.6 H 15896 v 14.2 h 3095.6 v -14.2"
         style="fill:#d0394e;fill-opacity:1;fill-rule:nonzero;stroke:none"
         transform="matrix(0.13333333,0,0,-0.13333333,0,2286.5867)" />
      <path
         id="path50"
         d="m 18949.4,3143.2 h -3070.3 v 14.2 h 3070.3 v -14.2"
         style="fill:#d0394e;fill-opacity:1;fill-rule:nonzero;stroke:none"
         transform="matrix(0.13333333,0,0,-0.13333333,0,2286.5867)" />
      <path
         id="path51"
         d="m 18893.9,2600.7 -3028.8,212.7 1,14.2 3028.8,-212.8 -1,-14.1"
         style="fill:#d0394e;fill-opacity:1;fill-rule:nonzero;stroke:none"
         transform="matrix(0.13333333,0,0,-0.13333333,0,2286.5867)" />
      <path
         id="path52"
         d="M 9500.92,5781 H 6837.84 v 14.1 H 9500.92 V 5781"
         style="fill:#d0394e;fill-opacity:1;fill-rule:nonzero;stroke:none"
         transform="matrix(0.13333333,0,0,-0.13333333,0,2286.5867)" />
      <path
         id="path53"
         d="M 9528.17,5083.5 H 6837.84 v 14.2 h 2690.33 v -14.2"
         style="fill:#d0394e;fill-opacity:1;fill-rule:nonzero;stroke:none"
         transform="matrix(0.13333333,0,0,-0.13333333,0,2286.5867)" />
      <path
         id="path54"
         d="M 9528.17,4650.1 H 6837.84 v 14.2 h 2690.33 v -14.2"
         style="fill:#d0394e;fill-opacity:1;fill-rule:nonzero;stroke:none"
         transform="matrix(0.13333333,0,0,-0.13333333,0,2286.5867)" />
      <path
         id="path55"
         d="m 6838.04,4063.1 -0.4,14.1 2727.21,75.1 0.38,-14.2 -2727.19,-75"
         style="fill:#d0394e;fill-opacity:1;fill-rule:nonzero;stroke:none"
         transform="matrix(0.13333333,0,0,-0.13333333,0,2286.5867)" />
      <path
         id="path56"
         d="m 9582.96,3674.3 -2745.32,76.3 0.4,14.2 2745.31,-76.4 -0.39,-14.1"
         style="fill:#d0394e;fill-opacity:1;fill-rule:nonzero;stroke:none"
         transform="matrix(0.13333333,0,0,-0.13333333,0,2286.5867)" />
      <path
         id="path57"
         d="m 9606.43,3073.6 -2768.76,69.6 0.33,14.2 2768.77,-69.7 -0.34,-14.1"
         style="fill:#d0394e;fill-opacity:1;fill-rule:nonzero;stroke:none"
         transform="matrix(0.13333333,0,0,-0.13333333,0,2286.5867)" />
      <path
         id="path58"
         d="M 9635.75,2542.5 H 6837.84 v 14.2 h 2797.91 v -14.2"
         style="fill:#d0394e;fill-opacity:1;fill-rule:nonzero;stroke:none"
         transform="matrix(0.13333333,0,0,-0.13333333,0,2286.5867)" />
      <path
         id="path59"
         d="m 17104.6,4145.2 h -14.1 v 320.1 h 14.1 v -320.1"
         style="fill:#d0394e;fill-opacity:1;fill-rule:nonzero;stroke:none"
         transform="matrix(0.13333333,0,0,-0.13333333,0,2286.5867)" />
      <path
         id="path60"
         d="m 8304.16,4107.7 h -14.18 v 549.5 h 14.18 v -549.5"
         style="fill:#d0394e;fill-opacity:1;fill-rule:nonzero;stroke:none"
         transform="matrix(0.13333333,0,0,-0.13333333,0,2286.5867)" />
      <path
         id="path61"
         d="m 8835.3,3707.6 h -14.17 v 400.1 h 14.17 v -400.1"
         style="fill:#d0394e;fill-opacity:1;fill-rule:nonzero;stroke:none"
         transform="matrix(0.13333333,0,0,-0.13333333,0,2286.5867)" />
      <path
         id="path62"
         d="m 19253.5,6146.8 -406.2,-4003.1 h 223 l 458.4,4003.1 h -275.2"
         style="fill:#d0394e;fill-opacity:1;fill-rule:evenodd;stroke:none"
         transform="matrix(0.13333333,0,0,-0.13333333,0,2286.5867)" />
      <path
         id="path63"
         d="M 6595.45,6146.8 V 2143.7 h 242.37 v 4003.1 h -242.37"
         style="fill:#d0394e;fill-opacity:1;fill-rule:evenodd;stroke:none"
         transform="matrix(0.13333333,0,0,-0.13333333,0,2286.5867)" />
      <path
         id="path64"
         d="M 6460.68,6756.6 V 2143.7 h 134.77 v 4003.1 l -134.77,609.8"
         style="fill:#6d040f;fill-opacity:1;fill-rule:evenodd;stroke:none"
         transform="matrix(0.13333333,0,0,-0.13333333,0,2286.5867)" />
      <path
         id="path65"
         d="m 3939.43,2143.7 -19.33,173.3 2658.6,86.8 16.75,-260.1 H 3939.43"
         style="fill:#6d040f;fill-opacity:1;fill-rule:evenodd;stroke:none"
         transform="matrix(0.13333333,0,0,-0.13333333,0,2286.5867)" />
      <path
         id="path66"
         d="m 9635.77,2337.3 h 1042.03 l 6.8,-193.6 H 9643.15 l -7.38,193.6"
         style="fill:#6d040f;fill-opacity:1;fill-rule:evenodd;stroke:none"
         transform="matrix(0.13333333,0,0,-0.13333333,0,2286.5867)" />
      <path
         id="path67"
         d="m 10677.8,2337.3 5172,93.5 -11.7,-287.1 h -5153.5 l -6.8,193.6"
         style="fill:#d0394e;fill-opacity:1;fill-rule:evenodd;stroke:none"
         transform="matrix(0.13333333,0,0,-0.13333333,0,2286.5867)" />
      <path
         id="path68"
         d="m 11918.5,5400.2 82.8,-3256.5 h 2875.6 l 211,3406.4 -1406.4,1837.62 -1461.8,-1987.52 h -301.2"
         style="fill:#ffdebc;fill-opacity:1;fill-rule:evenodd;stroke:none"
         transform="matrix(0.13333333,0,0,-0.13333333,0,2286.5867)" />
      <path
         id="path69"
         d="m 11857.5,5441.5 143.8,-3297.8 h 402.7 l -91.3,3383 -455.2,-85.2"
         style="fill:#d0394e;fill-opacity:1;fill-rule:evenodd;stroke:none"
         transform="matrix(0.13333333,0,0,-0.13333333,0,2286.5867)" />
      <path
         id="path70"
         d="m 13793.2,7753.04 -791.5,-520.1 -1437.3,-1832.74 h 510.4 l 1718.4,2352.84"
         style="fill:#6d040f;fill-opacity:1;fill-rule:evenodd;stroke:none"
         transform="matrix(0.13333333,0,0,-0.13333333,0,2286.5867)" />
      <path
         id="path71"
         d="m 13722.1,7252.92 1365.8,-1902.22 281.4,49.5 -1537.9,1987.52 -109.3,-134.8"
         style="fill:#6d040f;fill-opacity:1;fill-rule:evenodd;stroke:none"
         transform="matrix(0.13333333,0,0,-0.13333333,0,2286.5867)" />
      <path
         id="path72"
         d="m 12074.8,5400.2 1718.4,2352.84 1576.1,-2352.84 h -166.6 L 13831.4,7387.72 12219.7,5400.2 h -144.9"
         style="fill:#d0394e;fill-opacity:1;fill-rule:evenodd;stroke:none"
         transform="matrix(0.13333333,0,0,-0.13333333,0,2286.5867)" />
      <path
         id="path73"
         d="m 12574.1,2143.7 -55,2946.9 H 14852 l -114,-2946.9 h -2163.9"
         style="fill:#ffc3a2;fill-opacity:1;fill-rule:evenodd;stroke:none"
         transform="matrix(0.13333333,0,0,-0.13333333,0,2286.5867)" />
      <path
         id="path74"
         d="m 12764.7,2143.7 v 2622 h 1353.9 l -69.4,-2622 h -1284.5"
         style="fill:#ffdebc;fill-opacity:1;fill-rule:evenodd;stroke:none"
         transform="matrix(0.13333333,0,0,-0.13333333,0,2286.5867)" />
      <path
         id="path75"
         d="m 14545.7,5090.6 -55,-2946.9 h 247.3 l 114,2946.9 h -306.3"
         style="fill:#d0394e;fill-opacity:1;fill-rule:evenodd;stroke:none"
         transform="matrix(0.13333333,0,0,-0.13333333,0,2286.5867)" />
      <path
         id="path76"
         d="m 12888.5,2143.7 -30,2513.5 h 1124.8 L 13936,2143.7 h -1047.5"
         style="fill:#d0394e;fill-opacity:1;fill-rule:evenodd;stroke:none"
         transform="matrix(0.13333333,0,0,-0.13333333,0,2286.5867)" />
      <path
         id="path77"
         d="m 13413.5,2143.7 v 2513.5 h 28.2 V 2143.7 h -28.2"
         style="fill:#6d040f;fill-opacity:1;fill-rule:evenodd;stroke:none"
         transform="matrix(0.13333333,0,0,-0.13333333,0,2286.5867)" />
      <path
         id="path78"
         d="m 13541.8,4523.5 76.9,-1915.8 h 234.4 l 88.5,1915.8 h -399.8"
         style="fill:#d0394e;fill-opacity:1;fill-rule:evenodd;stroke:none"
         transform="matrix(0.13333333,0,0,-0.13333333,0,2286.5867)" />
      <path
         id="path79"
         d="m 13289.8,2607.7 h -306.4 l -52.1,1915.8 h 432.2 l -73.7,-1915.8"
         style="fill:#d0394e;fill-opacity:1;fill-rule:evenodd;stroke:none"
         transform="matrix(0.13333333,0,0,-0.13333333,0,2286.5867)" />
      <path
         id="path80"
         d="m 11564.4,5400.2 131.5,-31.4 523.8,31.4 -91.8,72.7 -563.5,-72.7"
         style="fill:#6d040f;fill-opacity:1;fill-rule:evenodd;stroke:none"
         transform="matrix(0.13333333,0,0,-0.13333333,0,2286.5867)" />
      <path
         id="path81"
         d="m 10684.6,2143.7 -138.8,3998.3 212.6,227.2 79.9,-4225.5 h -153.7"
         style="fill:#d0394e;fill-opacity:1;fill-rule:evenodd;stroke:none"
         transform="matrix(0.13333333,0,0,-0.13333333,0,2286.5867)" />
      <path
         id="path82"
         d="m 10320.8,6142 225,-3998.3 h 138.8 L 10545.8,6142 h -225"
         style="fill:#6d040f;fill-opacity:1;fill-rule:evenodd;stroke:none"
         transform="matrix(0.13333333,0,0,-0.13333333,0,2286.5867)" />
      <path
         id="path83"
         d="m 15996.2,6027.4 -158.1,-3883.7 h -181.2 l 190.2,4242.9 149.1,-359.2"
         style="fill:#d0394e;fill-opacity:1;fill-rule:evenodd;stroke:none"
         transform="matrix(0.13333333,0,0,-0.13333333,0,2286.5867)" />
      <path
         id="path84"
         d="m 16249.6,6027.4 h -253.4 l -2574.8,6203.3 170.7,379.6 2657.5,-6582.9"
         style="fill:#6d040f;fill-opacity:1;fill-rule:evenodd;stroke:none"
         transform="matrix(0.13333333,0,0,-0.13333333,0,2286.5867)" />
      <path
         id="path85"
         d="M 10545.8,6142 H 9132.84 l 3236.36,6319.4 1222.9,901 L 10545.8,6142"
         style="fill:#6d040f;fill-opacity:1;fill-rule:evenodd;stroke:none"
         transform="matrix(0.13333333,0,0,-0.13333333,0,2286.5867)" />
      <path
         id="path86"
         d="m 10320.8,6142 293.8,-89.4 2977.5,6557.7 2657.5,-6582.9 243,84.1 -2900.5,7250.9 L 10320.8,6142"
         style="fill:#d0394e;fill-opacity:1;fill-rule:evenodd;stroke:none"
         transform="matrix(0.13333333,0,0,-0.13333333,0,2286.5867)" />
      <path
         id="path87"
         d="m 9132.84,6142 1481.76,-89.4 -293.8,89.4 z"
         style="fill:#6d040f;fill-opacity:1;fill-rule:evenodd;stroke:none"
         transform="matrix(0.13333333,0,0,-0.13333333,0,2286.5867)" />
      <path
         id="path88"
         d="m 12531.1,8473.77 h 1654.2 l 157.6,143.94 -774.7,1914.99 h -222.4 l -891.1,-1894.69 76.4,-164.24"
         style="fill:#ffdebc;fill-opacity:1;fill-rule:evenodd;stroke:none"
         transform="matrix(0.13333333,0,0,-0.13333333,0,2286.5867)" />
      <path
         id="path89"
         d="m 13345.8,10532.7 -124.1,-125.2 -863.6,-1788.23 96.6,-145.5 h 76.4 l -76.4,164.24 891.1,1894.69"
         style="fill:#d0394e;fill-opacity:1;fill-rule:evenodd;stroke:none"
         transform="matrix(0.13333333,0,0,-0.13333333,0,2286.5867)" />
      <path
         id="path90"
         d="m 14185.3,8623.93 -724.2,1792.97 -858.8,-1792.97 z"
         style="fill:#d0394e;fill-opacity:1;fill-rule:evenodd;stroke:none"
         transform="matrix(0.13333333,0,0,-0.13333333,0,2286.5867)" />
      <path
         id="path91"
         d="m 12602.3,8623.93 h 1530 l -717.9,1695.17 z"
         style="fill:#5d2b56;fill-opacity:1;fill-rule:evenodd;stroke:none"
         transform="matrix(0.13333333,0,0,-0.13333333,0,2286.5867)" />
      <path
         id="path92"
         d="m 13391.2,10270.6 23.2,-1646.54 30.3,-4.98 v 1651.52 l -15.9,78.7 -37.6,-78.7"
         style="fill:#ffdebc;fill-opacity:1;fill-rule:evenodd;stroke:none"
         transform="matrix(0.13333333,0,0,-0.13333333,0,2286.5867)" />
      <path
         id="path93"
         d="m 7886.32,3076.5 -35.67,2180.9 h 1222.89 l -92.5,-2180.9 H 7886.32"
         style="fill:#ffdebc;fill-opacity:1;fill-rule:evenodd;stroke:none"
         transform="matrix(0.13333333,0,0,-0.13333333,0,2286.5867)" />
      <path
         id="path94"
         d="m 7850.65,5257.4 -80.7,-45.4 59.6,-2135.5 h 56.77 l -35.67,2180.9"
         style="fill:#d0394e;fill-opacity:1;fill-rule:evenodd;stroke:none"
         transform="matrix(0.13333333,0,0,-0.13333333,0,2286.5867)" />
      <path
         id="path95"
         d="m 7942.71,3152.1 h 972.02 l 85.92,2014.4 H 7942.71 V 3152.1"
         style="fill:#d0394e;fill-opacity:1;fill-rule:evenodd;stroke:none"
         transform="matrix(0.13333333,0,0,-0.13333333,0,2286.5867)" />
      <path
         id="path96"
         d="m 8938.15,5166.5 -67.7,-2014.4 h -927.74 v 2014.4 h 995.44"
         style="fill:#5d2b56;fill-opacity:1;fill-rule:evenodd;stroke:none"
         transform="matrix(0.13333333,0,0,-0.13333333,0,2286.5867)" />
      <path
         id="path97"
         d="m 8183.22,3152.1 h -14.16 v 2014.3 h 14.16 V 3152.1"
         style="fill:#ffdebc;fill-opacity:1;fill-rule:nonzero;stroke:none"
         transform="matrix(0.13333333,0,0,-0.13333333,0,2286.5867)" />
      <path
         id="path98"
         d="m 8681.4,3146.2 -14.18,0.4 59.02,2020.1 14.18,-0.5 -59.02,-2020"
         style="fill:#ffdebc;fill-opacity:1;fill-rule:nonzero;stroke:none"
         transform="matrix(0.13333333,0,0,-0.13333333,0,2286.5867)" />
      <path
         id="path99"
         d="m 8916.04,4501.4 h -973.82 v 14.2 h 973.82 v -14.2"
         style="fill:#ffdebc;fill-opacity:1;fill-rule:nonzero;stroke:none"
         transform="matrix(0.13333333,0,0,-0.13333333,0,2286.5867)" />
      <path
         id="path100"
         d="m 7943.77,3710.3 -0.89,14.2 948.1,58.5 0.89,-14.2 -948.1,-58.5"
         style="fill:#ffdebc;fill-opacity:1;fill-rule:nonzero;stroke:none"
         transform="matrix(0.13333333,0,0,-0.13333333,0,2286.5867)" />
      <path
         id="path101"
         d="m 17011.4,3076.5 19.3,2180.9 h 1222.8 l -147.4,-2180.9 h -1094.7"
         style="fill:#ffdebc;fill-opacity:1;fill-rule:evenodd;stroke:none"
         transform="matrix(0.13333333,0,0,-0.13333333,0,2286.5867)" />
      <path
         id="path102"
         d="m 17030.7,5257.4 -78.4,-45.4 V 3076.5 h 59.1 l 19.3,2180.9"
         style="fill:#d0394e;fill-opacity:1;fill-rule:evenodd;stroke:none"
         transform="matrix(0.13333333,0,0,-0.13333333,0,2286.5867)" />
      <path
         id="path103"
         d="m 17069.2,3152.1 h 970.6 l 140.8,2014.4 h -1059.3 l -52.1,-2014.4"
         style="fill:#d0394e;fill-opacity:1;fill-rule:evenodd;stroke:none"
         transform="matrix(0.13333333,0,0,-0.13333333,0,2286.5867)" />
      <path
         id="path104"
         d="m 18118.2,5166.5 -122.7,-2014.4 h -926.3 l 52.1,2014.4 h 996.9"
         style="fill:#5d2b56;fill-opacity:1;fill-rule:evenodd;stroke:none"
         transform="matrix(0.13333333,0,0,-0.13333333,0,2286.5867)" />
      <path
         id="path105"
         d="m 17308.3,3152 -14.2,0.3 54.9,2014.3 14.2,-0.3 -54.9,-2014.3"
         style="fill:#ffdebc;fill-opacity:1;fill-rule:nonzero;stroke:none"
         transform="matrix(0.13333333,0,0,-0.13333333,0,2286.5867)" />
      <path
         id="path106"
         d="m 17806.4,3146 -14.1,0.8 113.9,2020 14.2,-0.7 -114,-2020.1"
         style="fill:#ffdebc;fill-opacity:1;fill-rule:nonzero;stroke:none"
         transform="matrix(0.13333333,0,0,-0.13333333,0,2286.5867)" />
      <path
         id="path107"
         d="m 18096,4501.4 h -998.4 v 14.2 h 998.4 v -14.2"
         style="fill:#ffdebc;fill-opacity:1;fill-rule:nonzero;stroke:none"
         transform="matrix(0.13333333,0,0,-0.13333333,0,2286.5867)" />
      <path
         id="path108"
         d="m 17085.1,3758.1 -0.1,14.2 986.3,10.7 0.2,-14.2 -986.4,-10.7"
         style="fill:#ffdebc;fill-opacity:1;fill-rule:nonzero;stroke:none"
         transform="matrix(0.13333333,0,0,-0.13333333,0,2286.5867)" />
      <path
         id="path109"
         d="m 7797.17,12991.2 385.31,-1051 v 2841.9 l -385.31,-66.4 v -1724.5"
         style="fill:#d0394e;fill-opacity:1;fill-rule:evenodd;stroke:none"
         transform="matrix(0.13333333,0,0,-0.13333333,0,2286.5867)" />
      <path
         id="path110"
         d="m 8182.48,14782.1 h 1107.46 l -33.87,-2841.9 H 8182.48 v 2841.9"
         style="fill:#ffc3a2;fill-opacity:1;fill-rule:evenodd;stroke:none"
         transform="matrix(0.13333333,0,0,-0.13333333,0,2286.5867)" />
      <path
         id="path111"
         d="m 9411.56,14682.9 72.79,322.8 h -1465 l 48.59,-322.8 h 1343.62"
         style="fill:#ffdebc;fill-opacity:1;fill-rule:evenodd;stroke:none"
         transform="matrix(0.13333333,0,0,-0.13333333,0,2286.5867)" />
      <path
         id="path112"
         d="m 8019.35,15005.7 -357.6,-161.4 76.38,-262.1 59.04,-20.9 385.31,72.9 h 1113.8 l 115.28,48.7 H 8067.94 l -48.59,322.8"
         style="fill:#d0394e;fill-opacity:1;fill-rule:evenodd;stroke:none"
         transform="matrix(0.13333333,0,0,-0.13333333,0,2286.5867)" />
      <path
         id="path113"
         d="m 7738.13,14582.2 59.04,-20.9 385.31,72.9 h 1113.8 l 115.28,48.7 H 8067.94 l -329.81,-100.7"
         style="fill:#6d040f;fill-opacity:1;fill-rule:evenodd;stroke:none"
         transform="matrix(0.13333333,0,0,-0.13333333,0,2286.5867)" />
    </g>
  </g>
</svg>
