<svg version="1.2" xmlns="http://www.w3.org/2000/svg" viewBox="0 0 184 214" width="184" height="214">
	<style>
		.s0 { fill: #222221 } 
	</style>
	<g id="&lt;Group&gt;">
		<path id="&lt;Path&gt;" class="s0" d="m0.93 4.07c0 0 72.81 27.49 71.26 67.26h0.03v67.26c0 0-72.81-27.48-71.27-67.26h-0.02z"/>
		<g id="&lt;Group&gt;">
			<path id="&lt;Path&gt;" class="s0" d="m137.05 122.86c13.5-9.29 29.33-15.31 46.25-17.05v-21.06c-9.79 3.76-18.99 9.17-27.22 16.15-7.55 6.4-13.92 13.81-19.03 21.96z"/>
			<path id="&lt;Path&gt;" class="s0" d="m128.78 129.19c5.89-11.9 14.18-22.6 24.62-31.45 9.01-7.63 19.13-13.47 29.9-17.41v-60.67c0 0-103.68 39.14-101.48 95.78h-0.04v95.79c0 0 4.63-1.75 11.89-5.03q-0.04-4.61 0.33-9.27c2.26-27.33 15.39-51.21 34.78-67.74z"/>
			<path id="&lt;Path&gt;" class="s0" d="m118.93 164.78c0.55-6.72 1.78-13.28 3.62-19.61-12.1 14.28-20.03 32.3-21.68 52.33q-0.21 2.74-0.27 5.47c5.89-2.84 12.74-6.37 19.94-10.52-1.81-8.99-2.39-18.28-1.61-27.67z"/>
			<path id="&lt;Path&gt;" class="s0" d="m123.05 165.12c-0.7 8.51-0.24 16.93 1.28 25.11 28.33-16.95 60.17-43.13 58.94-74.79h0.03v-2.69c-20.62 2.28-39.43 11.38-53.9 25.17-3.41 8.59-5.57 17.73-6.35 27.2z"/>
		</g>
	</g>
</svg>