<svg id="Layer_1" data-name="Layer 1" xmlns="http://www.w3.org/2000/svg" viewBox="0 0 122.88 104.88"><defs><style>.cls-1{fill-rule:evenodd;}</style></defs><title>butter</title><path class="cls-1" d="M117.49,80.06c10.74-6,3.56-15.09-5.27-11.28l-74,33.52c10.15,8.39,49.57-5.93,49.23-11.41l30.07-10.83ZM1.33,18.9,33.67.3A2.3,2.3,0,0,1,36,.32L91.53,33.73a2.3,2.3,0,0,1,1.11,2h0v29a2.3,2.3,0,0,1-1.32,2.08L59.08,85a2.29,2.29,0,0,1-2.36-.06l-.28-.17-.12-.07L1.11,51.76A2.28,2.28,0,0,1,0,49.69L.11,20.92a2.31,2.31,0,0,1,1.22-2Zm63.12,13,2.1,1.24A17.22,17.22,0,0,1,69.23,35a1.24,1.24,0,0,1,.36,1.32,4.19,4.19,0,0,1-1.71,1.79,6,6,0,0,1-2.14,1.06,3.2,3.2,0,0,1-1.82-.38c.43.44.62.81.58,1.1a1.38,1.38,0,0,1-.3.68,15.64,15.64,0,0,1-1.59,1.19l-2.91,2-2.63-1.57,3.63-2.57c.6-.42.92-.7,1-.87s-.12-.35-.52-.58l-4.93,3.51L53.38,40l5.4-3.93,5.67-4.12Zm1,3.17-2.54,1.82a1.91,1.91,0,0,0,.83.3,2.08,2.08,0,0,0,1.09-.51l.63-.45c.36-.26.53-.46.52-.62s-.19-.33-.53-.54Zm-7-6.72,4.94,2.93c-.77.56-1.53,1.11-2.28,1.67l-1.95-1.16L57,33.4c.6.37,1.21.73,1.81,1.08L56.76,36,55,35,52.61,36.7,54.7,38l-2.12,1.56-4.9-2.93,5.26-4,5.52-4.19Zm-.67-.4-2.23,1.7-1.72-1L45.38,35.2c-.94-.55-1.87-1.12-2.81-1.68l8.35-6.59-1.73-1,2.16-1.73L57.79,28Zm-6.61-3.92L49,25.8l-1.71-1-8.22,6.66-2.8-1.67c2.64-2.19,5.34-4.42,8.1-6.72l-1.72-1c.7-.58,1.4-1.16,2.1-1.76l6.41,3.8Zm-7-4.18-6.86,5.78A17.06,17.06,0,0,1,35.62,27a4,4,0,0,1-1.39.5,4.48,4.48,0,0,1-1.75,0,5.74,5.74,0,0,1-1.74-.69,4.19,4.19,0,0,1-1.41-1.26A1.91,1.91,0,0,1,29,24.2a2.09,2.09,0,0,1,.53-1.11c.29-.32,1-1,2.07-1.93l5.91-5.22,2.91,1.73c-2.57,2.22-5.07,4.4-7.53,6.52a3.68,3.68,0,0,0-.73.75c-.07.13,0,.24.13.33a.51.51,0,0,0,.52,0,5.28,5.28,0,0,0,1-.75l7.44-6.4c1,.58,1.94,1.16,2.93,1.73ZM29.71,11.33l2.89,1.72a8.11,8.11,0,0,1,1.88,1.4,1.57,1.57,0,0,1,.35,1.38,4.21,4.21,0,0,1-1.44,1.94,3.36,3.36,0,0,1-1.51.89,3.44,3.44,0,0,1-1.71-.24,1.66,1.66,0,0,1,.68,1.39,2.94,2.94,0,0,1-1,1.46l-.89.79a5.69,5.69,0,0,1-1.67,1.12,2.43,2.43,0,0,1-1.41.09,10.73,10.73,0,0,1-2.38-1.18l-3.18-1.91,4.6-4.32,4.83-4.53Zm1.21,3.28-2.17,2,.28.16a.87.87,0,0,0,.7.14A4.67,4.67,0,0,0,30.9,16a2.28,2.28,0,0,0,.56-.65.35.35,0,0,0,0-.36,2.53,2.53,0,0,0-.53-.4ZM27.25,18,24.61,20.4a1.74,1.74,0,0,0,.9.29,1.92,1.92,0,0,0,.88-.56l.88-.8c.41-.37.61-.63.6-.77s-.22-.33-.62-.59ZM6.13,21.41,57.42,51.89l28.66-16.1L34.77,4.94,6.13,21.41ZM88.06,39.28,59.41,55.38V79.56L88.06,63.33v-24ZM55.39,78.82V55.34L4.67,25.19,4.58,48.5,55.39,78.82Zm24.72,7.8-32.53,14c6.3,5.21,34.45-7.3,36.84-9.32l-4.31-4.71Z"/></svg>