<svg xmlns="http://www.w3.org/2000/svg" shape-rendering="geometricPrecision" text-rendering="geometricPrecision" image-rendering="optimizeQuality" fill-rule="evenodd" clip-rule="evenodd" viewBox="0 0 512 496.37"><path d="M63.48 398.75c8.9 0 16.12 7.21 16.12 16.1 0 8.9-7.22 16.12-16.12 16.12-8.9 0-16.11-7.22-16.11-16.12 0-8.89 7.21-16.1 16.11-16.1zM512 385.6c0 30.59-12.41 58.29-32.44 78.32-20.04 20.04-47.74 32.45-78.32 32.45-30.59 0-58.29-12.41-78.32-32.45-20.04-20.03-32.45-47.73-32.45-78.32 0-30.58 12.41-58.28 32.45-78.31 20.03-20.04 47.73-32.45 78.32-32.45 30.58 0 58.28 12.41 78.32 32.45C499.59 327.32 512 355.02 512 385.6zm-69.86-12.9h-18.53v-29.01c0-3.25-2.67-5.93-5.94-5.93h-32.86c-3.26 0-5.94 2.67-5.94 5.93v29h-18.53c-7.14 0-10.73 8.5-6 13.65l40.98 47.84c3.23 3.89 9.11 3.9 12.41.16l40.54-48.16c4.62-5.31.72-13.48-6.13-13.48zM63.48 80.63c8.9 0 16.12 7.22 16.12 16.12 0 8.89-7.22 16.1-16.12 16.1-8.9 0-16.11-7.21-16.11-16.1 0-8.9 7.21-16.12 16.11-16.12zm351.5 0c8.9 0 16.12 7.22 16.12 16.12 0 8.89-7.22 16.1-16.12 16.1-8.9 0-16.11-7.21-16.11-16.1 0-8.9 7.21-16.12 16.11-16.12zm-168.52 75.49c-2.69 3.08-7.38 3.39-10.45.7-3.08-2.69-3.39-7.37-.7-10.45l30.8-35.24a7.428 7.428 0 0 1 10.46-.69c3.07 2.69 3.39 7.37.7 10.45l-30.81 35.23zm49.31-57.4a5.927 5.927 0 0 1-8.36 0 5.927 5.927 0 0 1 0-8.36l8.05-8.05c-13.55-11.49-30.77-18.8-49.65-19.94V76.4a5.915 5.915 0 0 1-11.83 0V62.48c-18.74 1.44-35.79 8.99-49.14 20.63l9.19 9.19a5.909 5.909 0 0 1 0 8.36 5.897 5.897 0 0 1-8.35 0l-9.18-9.18c-11.64 13.42-19.14 30.52-20.52 49.34h14.43c3.26 0 5.92 2.65 5.92 5.91 0 3.26-2.66 5.91-5.92 5.91h-14.49c1.23 18.99 8.7 36.28 20.38 49.83l9.06-9.06c2.31-2.3 6.05-2.3 8.36 0 2.3 2.31 2.3 6.05 0 8.36l-9.1 9.1c13.55 11.91 30.94 19.57 50.08 20.89v-11.5c0-3.26 2.65-5.91 5.91-5.91 3.26 0 5.91 2.65 5.91 5.91v11.5c19.21-1.33 36.67-9.04 50.24-21.03l-8.67-8.67a5.909 5.909 0 0 1 0-8.36c2.3-2.3 6.05-2.3 8.35 0l8.62 8.62c11.75-13.7 19.21-31.2 20.29-50.39H312a5.915 5.915 0 0 1 0-11.83h13.19c-1.55-18.96-9.32-36.16-21.27-49.54l-8.15 8.16zm-55.16-48.33c26.69 0 50.88 10.84 68.37 28.33 17.49 17.49 28.33 41.68 28.33 68.37 0 26.69-10.84 50.88-28.33 68.37-17.49 17.48-41.68 28.32-68.37 28.32-26.69 0-50.88-10.84-68.36-28.32-17.49-17.49-28.33-41.68-28.33-68.37 0-26.69 10.84-50.88 28.33-68.37 17.48-17.49 41.67-28.33 68.36-28.33zM55.77 29.75h92.72C173.68 9.92 206.64 0 239.48 0c32.85 0 65.81 9.92 90.99 29.75h92.23c15.34 0 29.28 6.28 39.38 16.38 10.1 10.1 16.38 24.05 16.38 39.39v173.54c-5.44-3.33-11.13-6.32-17.01-8.94V85.52c0-10.66-4.37-20.36-11.39-27.37-7.01-7.02-16.71-11.39-27.36-11.39h-95.17c-1.91-.04-3.83-.68-5.41-2-22.26-18.49-52.4-27.74-82.64-27.74-29.97 0-59.84 9.09-82.06 27.27a8.458 8.458 0 0 1-5.99 2.47H55.77c-10.65 0-20.36 4.37-27.37 11.39-7.01 7.01-11.38 16.71-11.38 27.37v333.57c0 10.65 4.37 20.35 11.38 27.37 7.01 7.01 16.72 11.38 27.37 11.38h216.02c3.31 5.94 7.03 11.62 11.11 17.02H55.77c-15.34 0-29.29-6.29-39.39-16.39C6.28 448.38 0 434.42 0 419.09V85.52c0-15.34 6.28-29.29 16.38-39.39 10.1-10.1 24.05-16.38 39.39-16.38zm110.27 374.34h88.12c.92 7.36 2.37 14.55 4.32 21.53h-92.44c-.31 0-.55-.24-.55-.55v-20.43c0-.31.24-.55.55-.55z"/></svg>