<svg xmlns="http://www.w3.org/2000/svg" shape-rendering="geometricPrecision" text-rendering="geometricPrecision" image-rendering="optimizeQuality" fill-rule="evenodd" clip-rule="evenodd" viewBox="0 0 498 512.19"><path d="M249 0c21.03 0 40.08 8.54 53.85 22.31l.35.38c13.58 13.75 21.96 32.66 21.96 53.48 0 21-8.53 40.05-22.31 53.83-13.77 13.8-32.82 22.34-53.85 22.34-21.04 0-40.09-8.54-53.86-22.31l-.35-.38c-13.58-13.75-21.96-32.66-21.96-53.48 0-21.04 8.53-40.09 22.31-53.86C208.91 8.54 227.96 0 249 0zm0 210.88c7.82 0 14.16 4.74 14.16 10.58 0 5.83-6.34 10.56-14.16 10.56s-14.15-4.73-14.15-10.56c0-5.84 6.33-10.58 14.15-10.58zM6.28 512.19C-13.45 366.2 17.23 292.15 44.09 227.37c9.6-23.14 26.53-66.01 32.49-109.75 4.96-36.43 1.32-73.46-.78-100.17h14.01c2.17 28.7 5.52 67.69.18 105.63-6.17 43.79-23.24 86.17-32.98 109.65-1.03 2.49-2.06 4.98-3.1 7.49 138.93 42.72 268.35 40.29 389.74-.26l-2.59-6.31c-9.4-22.83-34.01-63.54-40.19-106.1-5.69-39.3 3.51-80.2 7-110.1h14.03c-3.38 28.49-12.82 68.43-7.32 106.96 5.97 41.74 30.3 81.83 39.39 103.92 26.8 65.09 57.34 139.34 37.86 283.86h-14.11c15.72-114.93-.8-184.44-21.55-240.49-71.26 29.82-127.81 75.14-179.24 132.35.2.95.23 1.95.01 2.95-4.44 20.95-7.6 47.06-9.35 75.86-.58 9.52-1 19.32-1.27 29.33h-13.98c.26-10.3.7-20.37 1.29-30.15 1.35-22.28 3.54-43.02 6.5-61.14h-25.45c3.33 18.12 5.77 38.65 7.29 60.62.69 9.95 1.18 20.2 1.49 30.67h-14c-.3-10.14-.78-20.08-1.45-29.74-1.96-28.31-5.48-54.15-10.51-75.28-.05-.19-.08-.39-.12-.58-51.33-60.2-108.03-104.1-176.7-132.78C20.42 329.16 4.77 398.3 20.39 512.19H6.28zm221.58-450.5 14.12 13.41 26.42-26.81c2.46-2.52 4-4.51 7.05-1.4l9.87 10.1c3.23 3.2 3.06 5.07.01 8.06l-37.73 37.08c-6.43 6.3-5.32 6.7-11.84.21l-24.51-24.38c-1.35-1.47-1.21-2.96.26-4.44l11.45-11.85c1.73-1.81 3.11-1.69 4.9.02z"/></svg>